<svg width="18" height="14" viewBox="0 0 18 14" fill="none" xmlns="http://www.w3.org/2000/svg">
<path fill-rule="evenodd" clip-rule="evenodd" d="M6.70711 0.792893C7.09763 1.18342 7.09763 1.81658 6.70711 2.20711L2.41421 6.5L6.70711 10.7929C7.09763 11.1834 7.09763 11.8166 6.70711 12.2071C6.31658 12.5976 5.68342 12.5976 5.29289 12.2071L0.292893 7.20711C-0.0976311 6.81658 -0.0976311 6.18342 0.292893 5.79289L5.29289 0.792893C5.68342 0.402369 6.31658 0.402369 6.70711 0.792893Z" fill="#383838"/>
<path fill-rule="evenodd" clip-rule="evenodd" d="M1.49012e-08 6.5C1.49012e-08 5.94772 0.447715 5.5 1 5.5H13C14.3261 5.5 15.5979 6.02678 16.5355 6.96447C17.4732 7.90215 18 9.17392 18 10.5V12.5C18 13.0523 17.5523 13.5 17 13.5C16.4477 13.5 16 13.0523 16 12.5V10.5C16 9.70435 15.6839 8.94129 15.1213 8.37868C14.5587 7.81607 13.7956 7.5 13 7.5H1C0.447715 7.5 1.49012e-08 7.05228 1.49012e-08 6.5Z" fill="#383838"/>
</svg>
