<svg width="16" height="12" viewBox="0 0 16 12" fill="none" xmlns="http://www.w3.org/2000/svg">
<path fill-rule="evenodd" clip-rule="evenodd" d="M5.96187 0.270363C6.30901 0.630847 6.30901 1.21531 5.96187 1.57579L2.14597 5.53846L5.96187 9.50113C6.30901 9.86162 6.30901 10.4461 5.96187 10.8066C5.61474 11.167 5.05193 11.167 4.70479 10.8066L0.26035 6.19118C-0.0867832 5.83069 -0.0867832 5.24623 0.26035 4.88575L4.70479 0.270363C5.05193 -0.090121 5.61474 -0.090121 5.96187 0.270363Z" fill="white"/>
<path fill-rule="evenodd" clip-rule="evenodd" d="M1.32455e-08 5.53846C1.32455e-08 5.02866 0.397969 4.61538 0.888889 4.61538H11.5556C12.7343 4.61538 13.8648 5.10165 14.6983 5.9672C15.5317 6.83275 16 8.00669 16 9.23077V11.0769C16 11.5867 15.602 12 15.1111 12C14.6202 12 14.2222 11.5867 14.2222 11.0769V9.23077C14.2222 8.49632 13.9413 7.79196 13.4412 7.27263C12.9411 6.7533 12.2628 6.46154 11.5556 6.46154H0.888889C0.397969 6.46154 1.32455e-08 6.04826 1.32455e-08 5.53846Z" fill="white"/>
</svg>
