<svg width="14" height="11" viewBox="0 0 14 11" fill="none" xmlns="http://www.w3.org/2000/svg">
<path fill-rule="evenodd" clip-rule="evenodd" d="M4.9 1.375C4.9 0.995304 5.2134 0.6875 5.6 0.6875H13.3C13.6866 0.6875 14 0.995304 14 1.375C14 1.7547 13.6866 2.0625 13.3 2.0625H5.6C5.2134 2.0625 4.9 1.7547 4.9 1.375Z" fill="#383838"/>
<path fill-rule="evenodd" clip-rule="evenodd" d="M4.9 5.5C4.9 5.1203 5.2134 4.8125 5.6 4.8125H13.3C13.6866 4.8125 14 5.1203 14 5.5C14 5.8797 13.6866 6.1875 13.3 6.1875H5.6C5.2134 6.1875 4.9 5.8797 4.9 5.5Z" fill="#383838"/>
<path fill-rule="evenodd" clip-rule="evenodd" d="M4.9 9.625C4.9 9.2453 5.2134 8.9375 5.6 8.9375H13.3C13.6866 8.9375 14 9.2453 14 9.625C14 10.0047 13.6866 10.3125 13.3 10.3125H5.6C5.2134 10.3125 4.9 10.0047 4.9 9.625Z" fill="#383838"/>
<path fill-rule="evenodd" clip-rule="evenodd" d="M2.30502 0.201364C2.57839 -0.0671214 3.02161 -0.0671214 3.29497 0.201364C3.56834 0.46985 3.56834 0.905151 3.29497 1.17364L1.89497 2.54864C1.62161 2.81712 1.17839 2.81712 0.905025 2.54864L0.205025 1.86114C-0.0683418 1.59265 -0.0683418 1.15735 0.205025 0.888864C0.478392 0.620379 0.921608 0.620379 1.19497 0.888864L1.4 1.09023L2.30502 0.201364Z" fill="#383838"/>
<path fill-rule="evenodd" clip-rule="evenodd" d="M2.30502 4.32636C2.57839 4.05788 3.02161 4.05788 3.29497 4.32636C3.56834 4.59485 3.56834 5.03015 3.29497 5.29864L1.89497 6.67364C1.62161 6.94212 1.17839 6.94212 0.905025 6.67364L0.205025 5.98614C-0.0683418 5.71765 -0.0683418 5.28235 0.205025 5.01386C0.478392 4.74538 0.921608 4.74538 1.19497 5.01386L1.4 5.21523L2.30502 4.32636Z" fill="#383838"/>
<path fill-rule="evenodd" clip-rule="evenodd" d="M2.30502 8.45136C2.57839 8.18288 3.02161 8.18288 3.29497 8.45136C3.56834 8.71985 3.56834 9.15515 3.29497 9.42364L1.89497 10.7986C1.62161 11.0671 1.17839 11.0671 0.905025 10.7986L0.205025 10.1111C-0.0683418 9.84265 -0.0683418 9.40735 0.205025 9.13887C0.478392 8.87038 0.921608 8.87038 1.19497 9.13887L1.4 9.34023L2.30502 8.45136Z" fill="#383838"/>
</svg>
