<svg width="16" height="18" viewBox="0 0 16 18" fill="none" xmlns="http://www.w3.org/2000/svg">
<path fill-rule="evenodd" clip-rule="evenodd" d="M0 4C0 3.55817 0.358172 3.2 0.8 3.2H15.2C15.6418 3.2 16 3.55817 16 4C16 4.44183 15.6418 4.8 15.2 4.8H0.8C0.358172 4.8 0 4.44183 0 4Z" fill="white"/>
<path fill-rule="evenodd" clip-rule="evenodd" d="M6.4 1.6C6.18783 1.6 5.98434 1.68429 5.83431 1.83431C5.68429 1.98434 5.6 2.18783 5.6 2.4V3.2H10.4V2.4C10.4 2.18783 10.3157 1.98434 10.1657 1.83431C10.0157 1.68429 9.81217 1.6 9.6 1.6H6.4ZM12 3.2V2.4C12 1.76348 11.7471 1.15303 11.2971 0.702944C10.847 0.252856 10.2365 0 9.6 0H6.4C5.76348 0 5.15303 0.252856 4.70294 0.702944C4.25286 1.15303 4 1.76348 4 2.4V3.2H2.4C1.95817 3.2 1.6 3.55817 1.6 4V15.2C1.6 15.8365 1.85286 16.447 2.30294 16.8971C2.75303 17.3471 3.36348 17.6 4 17.6H12C12.6365 17.6 13.247 17.3471 13.6971 16.8971C14.1471 16.447 14.4 15.8365 14.4 15.2V4C14.4 3.55817 14.0418 3.2 13.6 3.2H12ZM3.2 4.8V15.2C3.2 15.4122 3.28429 15.6157 3.43431 15.7657C3.58434 15.9157 3.78783 16 4 16H12C12.2122 16 12.4157 15.9157 12.5657 15.7657C12.7157 15.6157 12.8 15.4122 12.8 15.2V4.8H3.2Z" fill="white"/>
<path fill-rule="evenodd" clip-rule="evenodd" d="M6.4 7.2C6.84183 7.2 7.2 7.55817 7.2 8V12.8C7.2 13.2418 6.84183 13.6 6.4 13.6C5.95817 13.6 5.6 13.2418 5.6 12.8V8C5.6 7.55817 5.95817 7.2 6.4 7.2Z" fill="white"/>
<path fill-rule="evenodd" clip-rule="evenodd" d="M9.6 7.2C10.0418 7.2 10.4 7.55817 10.4 8V12.8C10.4 13.2418 10.0418 13.6 9.6 13.6C9.15817 13.6 8.8 13.2418 8.8 12.8V8C8.8 7.55817 9.15817 7.2 9.6 7.2Z" fill="white"/>
</svg>
