<svg width="14" height="16" viewBox="0 0 14 16" fill="none" xmlns="http://www.w3.org/2000/svg">
<path fill-rule="evenodd" clip-rule="evenodd" d="M0 3.63645C0 3.23479 0.313401 2.90918 0.7 2.90918H13.3C13.6866 2.90918 14 3.23479 14 3.63645C14 4.03811 13.6866 4.36373 13.3 4.36373H0.7C0.313401 4.36373 0 4.03811 0 3.63645Z" fill="#EA4C60"/>
<path fill-rule="evenodd" clip-rule="evenodd" d="M5.59966 1.45455C5.41401 1.45455 5.23596 1.53117 5.10468 1.66756C4.97341 1.80395 4.89966 1.98893 4.89966 2.18182V2.90909H9.09966V2.18182C9.09966 1.98893 9.02591 1.80395 8.89463 1.66756C8.76336 1.53117 8.58531 1.45455 8.39966 1.45455H5.59966ZM10.4997 2.90909V2.18182C10.4997 1.60316 10.2784 1.04821 9.88458 0.63904C9.49076 0.229869 8.95661 0 8.39966 0H5.59966C5.0427 0 4.50856 0.229869 4.11473 0.63904C3.72091 1.04821 3.49966 1.60316 3.49966 2.18182V2.90909H2.09966C1.71306 2.90909 1.39966 3.2347 1.39966 3.63636V13.8182C1.39966 14.3968 1.62091 14.9518 2.01473 15.361C2.40856 15.7701 2.9427 16 3.49966 16H10.4997C11.0566 16 11.5908 15.7701 11.9846 15.361C12.3784 14.9518 12.5997 14.3968 12.5997 13.8182V3.63636C12.5997 3.2347 12.2863 2.90909 11.8997 2.90909H10.4997ZM2.79966 4.36364V13.8182C2.79966 14.0111 2.87341 14.1961 3.00468 14.3324C3.13596 14.4688 3.31401 14.5455 3.49966 14.5455H10.4997C10.6853 14.5455 10.8634 14.4688 10.9946 14.3324C11.1259 14.1961 11.1997 14.0111 11.1997 13.8182V4.36364H2.79966Z" fill="#EA4C60"/>
<path fill-rule="evenodd" clip-rule="evenodd" d="M5.59941 6.5459C5.98601 6.5459 6.29941 6.87151 6.29941 7.27317V11.6368C6.29941 12.0385 5.98601 12.3641 5.59941 12.3641C5.21281 12.3641 4.89941 12.0385 4.89941 11.6368V7.27317C4.89941 6.87151 5.21281 6.5459 5.59941 6.5459Z" fill="#EA4C60"/>
<path fill-rule="evenodd" clip-rule="evenodd" d="M8.40068 6.5459C8.78728 6.5459 9.10068 6.87151 9.10068 7.27317V11.6368C9.10068 12.0385 8.78728 12.3641 8.40068 12.3641C8.01408 12.3641 7.70068 12.0385 7.70068 11.6368V7.27317C7.70068 6.87151 8.01408 6.5459 8.40068 6.5459Z" fill="#EA4C60"/>
</svg>
