<svg width="33" height="32" viewBox="0 0 33 32" fill="none" xmlns="http://www.w3.org/2000/svg">
<path d="M27.88 0H6.12C3.2923 0 1 2.2923 1 5.12V26.88C1 29.7077 3.2923 32 6.12 32H27.88C30.7077 32 33 29.7077 33 26.88V5.12C33 2.2923 30.7077 0 27.88 0Z" fill="#EA4C60"/>
<path d="M7.76422 14.993L14.1382 11.325L14.1462 11.32L20.7142 7.54001C20.9912 7.38001 21.0042 6.89001 20.6942 6.71201L20.4772 6.58801C20.1602 6.40801 19.7502 6.17401 19.5752 6.07201C19.4219 5.98853 19.2497 5.94579 19.0752 5.94789C18.9006 5.94999 18.7295 5.99686 18.5782 6.08401C18.4232 6.17401 8.07722 12.122 7.73122 12.319C7.52734 12.4356 7.29657 12.4969 7.06172 12.4969C6.82688 12.4969 6.5961 12.4356 6.39222 12.319L0.928223 9.14401V11.843L0.984223 11.875C2.34822 12.67 5.57622 14.55 6.36622 14.995C6.84522 15.265 7.30322 15.259 7.76422 14.993Z" fill="white"/>
<path d="M7.76422 20.385L14.1302 16.721L14.1542 16.707L20.7142 12.932C20.9912 12.772 21.0042 12.281 20.6942 12.104L20.4772 11.98C20.1612 11.8 19.7502 11.566 19.5752 11.464C19.4219 11.3805 19.2497 11.3378 19.0752 11.3399C18.9006 11.342 18.7295 11.3889 18.5782 11.476C18.4232 11.565 8.07722 17.514 7.73122 17.71C7.52734 17.8266 7.29657 17.8879 7.06172 17.8879C6.82688 17.8879 6.5961 17.8266 6.39222 17.71C6.06622 17.522 0.928223 14.536 0.928223 14.536V17.234L0.984223 17.267C2.34922 18.062 5.57622 19.941 6.36622 20.387C6.84522 20.657 7.30322 20.651 7.76422 20.385Z" fill="white"/>
<path d="M14.1392 22.108L7.76422 25.777C7.30322 26.043 6.84422 26.049 6.36622 25.779C5.57622 25.333 2.34922 23.454 0.984223 22.659L0.928223 22.626V19.928L6.39222 23.102C6.80522 23.341 7.31722 23.338 7.73122 23.102C8.07722 22.906 18.4232 16.957 18.5782 16.867C18.7295 16.7799 18.9006 16.733 19.0752 16.7309C19.2497 16.7288 19.4219 16.7715 19.5752 16.855C19.9475 17.0703 20.3208 17.2836 20.6952 17.495C21.0052 17.673 20.9912 18.164 20.7142 18.324L14.1392 22.108Z" fill="white"/>
</svg>
