<svg width="15" height="15" viewBox="0 0 15 15" fill="none" xmlns="http://www.w3.org/2000/svg">
<path fill-rule="evenodd" clip-rule="evenodd" d="M2.69769 1.08014C3.22771 0.862191 3.79595 0.75 4.36985 0.75C4.94374 0.75 5.51199 0.862192 6.042 1.08014C6.57202 1.29809 7.05338 1.61751 7.45848 2.02008L7.46075 2.02234L7.50049 2.06222L7.54025 2.02234L7.54251 2.02008C7.94761 1.61751 8.42896 1.29809 8.95898 1.08014C9.489 0.862192 10.0572 0.75 10.6311 0.75C11.205 0.75 11.7733 0.862191 12.3033 1.08014C12.8331 1.29802 13.3143 1.61729 13.7194 2.01967C15.4533 3.7373 15.4919 6.5773 13.4372 8.65016L13.4328 8.65463L7.98226 14.0524C7.85448 14.1789 7.68119 14.25 7.50049 14.25C7.3198 14.25 7.1465 14.1789 7.01873 14.0524L1.56374 8.65018C-0.490907 6.57732 -0.452331 3.73729 1.28164 2.01966C1.68665 1.61729 2.16786 1.29801 2.69769 1.08014ZM4.36985 2.09944C3.9753 2.09944 3.58463 2.17657 3.22024 2.32641C2.85585 2.47625 2.52492 2.69586 2.24641 2.97262L2.24558 2.97345C1.09169 4.11617 0.952882 6.10561 2.53405 7.70271L7.50049 12.6211L12.4669 7.70272C14.0481 6.10562 13.9093 4.11617 12.7554 2.97345L12.7546 2.97262C12.4761 2.69586 12.1451 2.47625 11.7807 2.32641C11.4164 2.17657 11.0257 2.09944 10.6311 2.09944C10.2366 2.09944 9.84592 2.17657 9.48153 2.32641C9.11762 2.47606 8.78708 2.69528 8.5088 2.97153L8.50771 2.97262L7.98535 3.49665C7.85734 3.62507 7.68271 3.69736 7.50049 3.69736C7.31827 3.69736 7.14365 3.62507 7.01563 3.49665L6.49328 2.97262L6.49218 2.97153C6.21391 2.69528 5.88336 2.47606 5.51946 2.32641C5.15507 2.17657 4.7644 2.09944 4.36985 2.09944Z" fill="#30CE95"/>
</svg>
