<svg width="15" height="15" viewBox="0 0 15 15" fill="none" xmlns="http://www.w3.org/2000/svg">
<path fill-rule="evenodd" clip-rule="evenodd" d="M0.000488281 7.51226C0.000488281 7.13508 0.305749 6.82933 0.682306 6.82933H7.50049C7.87705 6.82933 8.18231 7.13508 8.18231 7.51226C8.18231 7.88943 7.87705 8.19519 7.50049 8.19519H0.682306C0.305749 8.19519 0.000488281 7.88943 0.000488281 7.51226Z" fill="#FF93D4"/>
<path fill-rule="evenodd" clip-rule="evenodd" d="M5.45503 1.36586C5.83159 1.36586 6.13685 1.67162 6.13685 2.0488V12.9757C6.13685 13.3529 5.83159 13.6587 5.45503 13.6587C5.07848 13.6587 4.77322 13.3529 4.77322 12.9757V2.0488C4.77322 1.67162 5.07848 1.36586 5.45503 1.36586Z" fill="#FF93D4"/>
<path fill-rule="evenodd" clip-rule="evenodd" d="M0.882006 4.98055C1.14827 4.71385 1.57998 4.71385 1.84624 4.98055L3.8917 7.02935C4.15796 7.29605 4.15796 7.72846 3.8917 7.99516L1.84624 10.044C1.57998 10.3107 1.14827 10.3107 0.882006 10.044C0.61574 9.77726 0.61574 9.34485 0.882006 9.07815L2.44534 7.51226L0.882006 5.94637C0.61574 5.67966 0.61574 5.24726 0.882006 4.98055Z" fill="#FF93D4"/>
<path fill-rule="evenodd" clip-rule="evenodd" d="M2.92746 2.93176C3.19373 2.66505 3.62543 2.66505 3.8917 2.93176L5.45503 4.49765L7.01837 2.93176C7.28464 2.66505 7.71634 2.66505 7.98261 2.93176C8.24887 3.19846 8.24887 3.63087 7.98261 3.89757L5.93715 5.94637C5.67089 6.21307 5.23918 6.21307 4.97291 5.94637L2.92746 3.89757C2.66119 3.63087 2.66119 3.19846 2.92746 2.93176Z" fill="#FF93D4"/>
<path fill-rule="evenodd" clip-rule="evenodd" d="M4.97291 9.07815C5.23918 8.81145 5.67088 8.81145 5.93715 9.07815L6.95988 10.1025C7.22614 10.3693 7.22614 10.8017 6.95988 11.0684C6.69361 11.3351 6.26191 11.3351 5.99564 11.0684L5.45503 10.5269L3.8917 12.0928C3.62543 12.3595 3.19373 12.3595 2.92746 12.0928C2.66119 11.8261 2.66119 11.3936 2.92746 11.1269L4.97291 9.07815Z" fill="#FF93D4"/>
<path fill-rule="evenodd" clip-rule="evenodd" d="M10.145 0.600079C10.5286 0.215855 11.0489 0 11.5914 0C12.1339 0 12.6542 0.215855 13.0378 0.600079C13.4213 0.984303 13.6369 1.50542 13.6369 2.0488V8.8536C14.1238 9.21938 14.5062 9.71078 14.741 10.2786C15.0282 10.9731 15.0786 11.743 14.8843 12.4691C14.6901 13.1952 14.2621 13.8368 13.6667 14.2944C13.0713 14.752 12.3419 15 11.5914 15C10.8409 15 10.1115 14.752 9.51607 14.2944C8.9207 13.8368 8.4927 13.1952 8.29847 12.4691C8.10423 11.743 8.15462 10.9731 8.44181 10.2786C8.67662 9.71078 9.05902 9.21938 9.54594 8.8536V2.0488C9.54594 1.50542 9.76144 0.984303 10.145 0.600079ZM11.5914 1.36587C11.4106 1.36587 11.2371 1.43782 11.1093 1.56589C10.9814 1.69397 10.9096 1.86767 10.9096 2.0488V9.21959C10.9096 9.46358 10.7796 9.68903 10.5687 9.81103C10.1787 10.0365 9.87395 10.3846 9.70164 10.8013C9.52933 11.218 9.4991 11.68 9.61564 12.1156C9.73218 12.5512 9.98898 12.9362 10.3462 13.2108C10.7034 13.4853 11.1411 13.6341 11.5914 13.6341C12.0417 13.6341 12.4794 13.4853 12.8366 13.2108C13.1938 12.9362 13.4506 12.5512 13.5672 12.1156C13.6837 11.68 13.6535 11.218 13.4811 10.8013C13.3088 10.3846 13.0041 10.0365 12.6141 9.81103C12.4032 9.68903 12.2732 9.46358 12.2732 9.21959V2.0488C12.2732 1.86767 12.2014 1.69397 12.0735 1.56589C11.9456 1.43782 11.7722 1.36587 11.5914 1.36587Z" fill="#FF93D4"/>
</svg>
