<svg width="17" height="13" viewBox="0 0 17 13" fill="none" xmlns="http://www.w3.org/2000/svg">
<path fill-rule="evenodd" clip-rule="evenodd" d="M1.4768 8.7519C2.10192 8.14241 2.94977 7.8 3.83382 7.8H9.16716C10.0512 7.8 10.8991 8.14241 11.5242 8.7519C12.1493 9.3614 12.5005 10.188 12.5005 11.05V12.35C12.5005 12.709 12.202 13 11.8338 13C11.4656 13 11.1672 12.709 11.1672 12.35V11.05C11.1672 10.5328 10.9564 10.0368 10.5814 9.67114C10.2063 9.30545 9.69759 9.1 9.16716 9.1H3.83382C3.30339 9.1 2.79468 9.30545 2.41961 9.67114C2.04454 10.0368 1.83382 10.5328 1.83382 11.05V12.35C1.83382 12.709 1.53534 13 1.16715 13C0.798965 13 0.500488 12.709 0.500488 12.35V11.05C0.500488 10.188 0.851678 9.3614 1.4768 8.7519Z" fill="#FFA693"/>
<path fill-rule="evenodd" clip-rule="evenodd" d="M6.50049 1.3C5.39592 1.3 4.50049 2.17304 4.50049 3.25C4.50049 4.32695 5.39592 5.2 6.50049 5.2C7.60506 5.2 8.50049 4.32695 8.50049 3.25C8.50049 2.17304 7.60506 1.3 6.50049 1.3ZM3.16716 3.25C3.16716 1.45507 4.65954 0 6.50049 0C8.34144 0 9.83382 1.45507 9.83382 3.25C9.83382 5.04493 8.34144 6.5 6.50049 6.5C4.65954 6.5 3.16716 5.04493 3.16716 3.25Z" fill="#FFA693"/>
<path fill-rule="evenodd" clip-rule="evenodd" d="M13.1883 8.372C13.2804 8.02441 13.644 7.81539 14.0005 7.90514C14.7156 8.08516 15.3491 8.49165 15.8016 9.06077C16.2541 9.62989 16.4999 10.3294 16.5005 11.0495V12.35C16.5005 12.709 16.202 13 15.8338 13C15.4656 13 15.1672 12.709 15.1672 12.35V11.0505V11.0505C15.1668 10.6185 15.0193 10.1987 14.7478 9.85724C14.4763 9.51577 14.0962 9.27187 13.6672 9.16386C13.3107 9.07411 13.0963 8.71959 13.1883 8.372Z" fill="#FFA693"/>
<path fill-rule="evenodd" clip-rule="evenodd" d="M10.5213 0.573274C10.6126 0.225508 10.9758 0.0157701 11.3325 0.104812C12.0495 0.283807 12.685 0.690382 13.1389 1.26044C13.5927 1.8305 13.8391 2.53161 13.8391 3.25325C13.8391 3.97489 13.5927 4.676 13.1389 5.24606C12.685 5.81612 12.0495 6.22269 11.3325 6.40169C10.9758 6.49073 10.6126 6.28099 10.5213 5.93323C10.43 5.58546 10.6451 5.23135 11.0018 5.14231C11.432 5.03492 11.8133 4.79097 12.0856 4.44894C12.3579 4.1069 12.5057 3.68623 12.5057 3.25325C12.5057 2.82027 12.3579 2.3996 12.0856 2.05756C11.8133 1.71553 11.432 1.47158 11.0018 1.36419C10.6451 1.27514 10.43 0.921041 10.5213 0.573274Z" fill="#FFA693"/>
</svg>
