<svg width="15" height="11" viewBox="0 0 15 11" fill="none" xmlns="http://www.w3.org/2000/svg">
<path d="M6.13685 5.5H3.40958C3.03458 5.5 2.72776 5.19063 2.72776 4.8125C2.72776 4.43438 3.03458 4.125 3.40958 4.125H6.13685C6.51185 4.125 6.81867 4.43438 6.81867 4.8125C6.81867 5.19063 6.51185 5.5 6.13685 5.5Z" fill="#EA4C60"/>
<path d="M4.77322 6.875C4.39822 6.875 4.0914 6.56563 4.0914 6.1875V3.4375C4.0914 3.05938 4.39822 2.75 4.77322 2.75C5.14822 2.75 5.45503 3.05938 5.45503 3.4375V6.1875C5.45503 6.56563 5.14822 6.875 4.77322 6.875Z" fill="#EA4C60"/>
<path d="M9.55276 6.1875C9.17776 6.1875 8.87094 5.87813 8.87094 5.5C8.87094 5.12188 9.17094 4.8125 9.54594 4.8125H9.55276C9.92776 4.8125 10.2346 5.12188 10.2346 5.5C10.2346 5.87813 9.92776 6.1875 9.55276 6.1875Z" fill="#EA4C60"/>
<path d="M11.5982 4.8125C11.2232 4.8125 10.9164 4.50313 10.9164 4.125C10.9164 3.74688 11.2164 3.4375 11.5914 3.4375H11.5982C11.9732 3.4375 12.28 3.74688 12.28 4.125C12.28 4.50313 11.9732 4.8125 11.5982 4.8125Z" fill="#EA4C60"/>
<path d="M0.484579 3.08688C0.573216 2.24125 0.961852 1.4575 1.58912 0.886875C2.2164 0.31625 3.02776 0 3.87322 0H11.1278C11.9732 0 12.7846 0.31625 13.4119 0.886875C14.0391 1.4575 14.4346 2.24125 14.5164 3.08688L14.5232 3.17625C14.6391 4.10438 15.0005 7.21188 15.0005 8.25C15.0005 8.98563 14.7141 9.67313 14.2028 10.1956C13.6846 10.7113 13.0028 11 12.2732 11C11.3119 11 10.8005 10.4844 10.4255 10.1131L9.46413 9.14375C9.33458 9.00625 9.16413 8.9375 8.98003 8.9375H6.02094C5.84367 8.9375 5.6664 9.01313 5.53685 9.13688L4.57549 10.1063C4.20049 10.4844 3.68912 11 2.72776 11C2.01185 11 1.30958 10.7044 0.798216 10.1956C0.286852 9.67313 0.000488281 8.98563 0.000488281 8.25C0.000488281 7.21875 0.361852 4.10438 0.470943 3.17625L0.484579 3.08688ZM6.02094 7.5625H8.98003C9.52549 7.5625 10.0369 7.77563 10.4255 8.1675L11.3869 9.13688C11.7278 9.47375 11.8914 9.625 12.2732 9.625C12.6346 9.625 12.9823 9.48063 13.2414 9.21938C13.4937 8.965 13.6369 8.61438 13.6369 8.25C13.6369 7.48688 13.3982 5.21125 13.1732 3.34125C13.1732 3.33438 13.1664 3.26563 13.1664 3.26563C13.1119 2.71563 12.8732 2.24813 12.4982 1.90438C12.1232 1.56063 11.6323 1.375 11.1278 1.375H3.87322C3.36867 1.375 2.87776 1.56063 2.50276 1.90438C2.12776 2.24813 1.88912 2.71563 1.8414 3.22438L1.82776 3.34813C1.60276 5.21813 1.36412 7.49375 1.36412 8.25C1.36412 8.61438 1.50731 8.965 1.7664 9.21938C2.02549 9.47375 2.3664 9.625 2.72776 9.625C3.10958 9.625 3.27322 9.47375 3.60731 9.13688L4.56867 8.1675C4.95731 7.77563 5.47549 7.5625 6.02094 7.5625Z" fill="#EA4C60"/>
</svg>
