<svg width="14" height="15" viewBox="0 0 14 15" fill="none" xmlns="http://www.w3.org/2000/svg">
<path fill-rule="evenodd" clip-rule="evenodd" d="M6.58559 0.143623C6.82934 -0.0478745 7.17066 -0.0478745 7.41441 0.143623L13.4894 4.91635C13.6538 5.04553 13.75 5.24414 13.75 5.45455V12.9545C13.75 13.497 13.5367 14.0173 13.1569 14.4009C12.7771 14.7845 12.2621 15 11.725 15H2.275C1.73794 15 1.22287 14.7845 0.843109 14.4009C0.463348 14.0173 0.25 13.497 0.25 12.9545V5.45455C0.25 5.24414 0.346169 5.04553 0.51059 4.91635L6.58559 0.143623ZM1.6 5.78801V12.9545C1.6 13.1354 1.67112 13.3088 1.7977 13.4367C1.92429 13.5645 2.09598 13.6364 2.275 13.6364H11.725C11.904 13.6364 12.0757 13.5645 12.2023 13.4367C12.3289 13.3088 12.4 13.1354 12.4 12.9545V5.78801L7 1.54559L1.6 5.78801Z" fill="#EABE4C"/>
<path fill-rule="evenodd" clip-rule="evenodd" d="M4.3 7.5C4.3 7.12344 4.60221 6.81818 4.975 6.81818H9.025C9.39779 6.81818 9.7 7.12344 9.7 7.5V14.3182C9.7 14.6947 9.39779 15 9.025 15C8.65221 15 8.35 14.6947 8.35 14.3182V8.18182H5.65V14.3182C5.65 14.6947 5.34779 15 4.975 15C4.60221 15 4.3 14.6947 4.3 14.3182V7.5Z" fill="#EABE4C"/>
</svg>
