<svg width="15" height="15" viewBox="0 0 15 15" fill="none" xmlns="http://www.w3.org/2000/svg">
<path fill-rule="evenodd" clip-rule="evenodd" d="M2.04594 2.09887C1.86511 2.09887 1.69169 2.16993 1.56382 2.29641C1.43596 2.42289 1.36412 2.59443 1.36412 2.7733V12.2154C1.36412 12.3943 1.43596 12.5658 1.56382 12.6923C1.69169 12.8188 1.86511 12.8898 2.04594 12.8898H10.9096C10.939 12.8898 10.9685 12.8917 10.9977 12.8955C11.1323 12.9128 11.2692 12.89 11.3907 12.8299C11.499 12.7763 11.5907 12.6953 11.6566 12.5954L13.3348 8.16878H5.23483L4.04263 11.117C3.90278 11.4628 3.50598 11.6311 3.15636 11.4927C2.80673 11.3544 2.63668 10.9619 2.77653 10.616L4.14016 7.24387C4.24371 6.98781 4.49442 6.81991 4.77321 6.81991H12.2732V4.79661C12.2732 4.61774 12.2014 4.44619 12.0735 4.31971C11.9456 4.19323 11.7722 4.12217 11.5914 4.12217H6.81867C6.5907 4.12217 6.37782 4.00947 6.25136 3.82185L5.09013 2.09887H2.04594ZM13.6368 6.81991V4.79661C13.6368 4.25999 13.4213 3.74536 13.0377 3.36592C12.6542 2.98647 12.1339 2.7733 11.5914 2.7733H7.18357L6.02234 1.05033C5.89589 0.862699 5.683 0.75 5.45503 0.75H2.04594C1.50345 0.75 0.983185 0.963169 0.599588 1.34261C0.215991 1.72206 0.000488281 2.23669 0.000488281 2.7733V12.2154C0.000488281 12.752 0.215991 13.2666 0.599588 13.6461C0.983185 14.0255 1.50345 14.2387 2.04594 14.2387H10.8698C11.2582 14.2795 11.6506 14.2095 12.0005 14.0364C12.3649 13.8562 12.6666 13.5724 12.8669 13.2214C12.8843 13.191 12.8992 13.1593 12.9116 13.1266L14.9571 7.73116C15.0356 7.52404 15.0064 7.292 14.8791 7.11019C14.7517 6.92838 14.5423 6.81991 14.3187 6.81991H13.6368Z" fill="#EA7B4C"/>
</svg>
