<svg width="15" height="16" viewBox="0 0 15 16" fill="none" xmlns="http://www.w3.org/2000/svg">
<path fill-rule="evenodd" clip-rule="evenodd" d="M0.727279 0C1.12894 0 1.45455 0.325611 1.45455 0.727273V4.36364H5.09092C5.49258 4.36364 5.81819 4.68925 5.81819 5.09091C5.81819 5.49257 5.49258 5.81818 5.09092 5.81818H0.727279C0.325617 5.81818 6.23437e-06 5.49257 6.23437e-06 5.09091V0.727273C6.23437e-06 0.325611 0.325617 0 0.727279 0Z" fill="#4CEA65"/>
<path fill-rule="evenodd" clip-rule="evenodd" d="M6.15123 0.820229C7.53783 0.603818 8.95742 0.793206 10.2388 1.36555C11.5202 1.93789 12.6086 2.86875 13.3727 4.04583C14.1369 5.22292 14.5442 6.59596 14.5455 7.99934C14.5458 8.401 14.2205 8.72691 13.8189 8.72727C13.4172 8.72764 13.0913 8.40233 13.0909 8.00066C13.0899 6.87796 12.7641 5.77953 12.1527 4.83786C11.5414 3.89619 10.6707 3.15151 9.64558 2.69363C8.62048 2.23576 7.48481 2.08425 6.37553 2.25738C5.26661 2.43045 4.23142 2.92057 3.39474 3.66864L3.39395 3.66935L1.2138 5.63149C0.915246 5.90018 0.455399 5.87598 0.186701 5.57743C-0.0819961 5.27888 -0.0577935 4.81903 0.240759 4.55033L2.42425 2.58519C3.47026 1.64961 4.76463 1.03664 6.15123 0.820229Z" fill="#4CEA65"/>
<path fill-rule="evenodd" clip-rule="evenodd" d="M8.72728 10.9091C8.72728 10.5074 9.05289 10.1818 9.45455 10.1818H13.8182C14.2198 10.1818 14.5455 10.5074 14.5455 10.9091V15.2727C14.5455 15.6744 14.2198 16 13.8182 16C13.4165 16 13.0909 15.6744 13.0909 15.2727V11.6364H9.45455C9.05289 11.6364 8.72728 11.3108 8.72728 10.9091Z" fill="#4CEA65"/>
<path fill-rule="evenodd" clip-rule="evenodd" d="M0.726616 7.27273C1.12828 7.27236 1.45419 7.59768 1.45455 7.99934C1.45557 9.12204 1.7814 10.2205 2.39274 11.1621C3.00407 12.1038 3.8748 12.8485 4.89989 13.3064C5.92498 13.7642 7.06066 13.9158 8.16994 13.7426C9.27886 13.5695 10.314 13.0794 11.1507 12.3314L11.1515 12.3307L13.3317 10.3685C13.6302 10.0998 14.0901 10.124 14.3588 10.4226C14.6275 10.7211 14.6033 11.181 14.3047 11.4497L12.1229 13.4133L12.1212 13.4148C11.0752 14.3504 9.78083 14.9634 8.39424 15.1798C7.00764 15.3962 5.58805 15.2068 4.30668 14.6345C3.02531 14.0621 1.9369 13.1313 1.17274 11.9542C0.408571 10.7771 0.00128529 9.40404 6.54289e-06 8.00066C-0.000359451 7.599 0.324955 7.27309 0.726616 7.27273Z" fill="#4CEA65"/>
</svg>
