<svg width="14" height="17" viewBox="0 0 14 17" fill="none" xmlns="http://www.w3.org/2000/svg">
<path fill-rule="evenodd" clip-rule="evenodd" d="M7.97873 0.0639463C8.26379 0.20054 8.43314 0.528227 8.39459 0.868611L7.79295 6.18183H13.3C13.5716 6.18183 13.8187 6.35528 13.9339 6.6268C14.0491 6.89832 14.0116 7.2189 13.8377 7.44924L6.83776 16.7219C6.63882 16.9854 6.30632 17.0726 6.02127 16.9361C5.73622 16.7995 5.56686 16.4718 5.60541 16.1314L6.20705 10.8182H0.700008C0.428396 10.8182 0.181302 10.6447 0.0660959 10.3732C-0.0491099 10.1017 -0.0116283 9.7811 0.162253 9.55076L7.16225 0.278081C7.36118 0.0145561 7.69368 -0.072647 7.97873 0.0639463ZM2.19454 9.27272H7C7.20078 9.27272 7.3919 9.3679 7.52478 9.53406C7.65765 9.70022 7.7195 9.92136 7.69459 10.1413L7.29074 13.7078L11.8055 7.72728H7C6.79922 7.72728 6.6081 7.6321 6.47523 7.46594C6.34235 7.29978 6.2805 7.07864 6.30541 6.85871L6.70926 3.2922L2.19454 9.27272Z" fill="#383838"/>
</svg>
