<svg width="12" height="15" viewBox="0 0 12 15" fill="none" xmlns="http://www.w3.org/2000/svg">
<path fill-rule="evenodd" clip-rule="evenodd" d="M2.33382 11.5909C2.06861 11.5909 1.81425 11.6987 1.62671 11.8905C1.43918 12.0823 1.33382 12.3424 1.33382 12.6136C1.33382 12.9902 1.03534 13.2955 0.667155 13.2955C0.298965 13.2955 0.000488281 12.9902 0.000488281 12.6136C0.000488281 11.9807 0.246321 11.3738 0.683906 10.9262C1.12149 10.4787 1.71498 10.2273 2.33382 10.2273H11.3338C11.702 10.2273 12.0005 10.5325 12.0005 10.9091C12.0005 11.2857 11.702 11.5909 11.3338 11.5909H2.33382Z" fill="#CA93FF"/>
<path fill-rule="evenodd" clip-rule="evenodd" d="M2.33382 1.36364C2.06861 1.36364 1.81425 1.47139 1.62671 1.66319C1.43918 1.85498 1.33382 2.11512 1.33382 2.38636V12.6136C1.33382 12.8849 1.43918 13.145 1.62671 13.3368C1.81425 13.5286 2.06861 13.6364 2.33382 13.6364H10.6672V1.36364H2.33382ZM2.33382 0H11.3338C11.702 0 12.0005 0.30526 12.0005 0.681818V14.3182C12.0005 14.6947 11.702 15 11.3338 15H2.33382C1.71498 15 1.12149 14.7486 0.683906 14.3011C0.246321 13.8535 0.000488281 13.2465 0.000488281 12.6136V2.38636C0.000488281 1.75346 0.246321 1.14648 0.683906 0.69895C1.12149 0.25142 1.71498 0 2.33382 0Z" fill="#CA93FF"/>
</svg>
