<svg width="16" height="15" viewBox="0 0 16 15" fill="none" xmlns="http://www.w3.org/2000/svg">
<path fill-rule="evenodd" clip-rule="evenodd" d="M5.27322 0.681818C5.27322 0.30526 5.57848 0 5.95503 0H10.0459C10.4225 0 10.7278 0.30526 10.7278 0.681818V4.77273C10.7278 5.14929 10.4225 5.45455 10.0459 5.45455H5.95503C5.57848 5.45455 5.27322 5.14929 5.27322 4.77273V0.681818ZM6.63685 1.36364V4.09091H9.36413V1.36364H6.63685Z" fill="#4C8BEA"/>
<path fill-rule="evenodd" clip-rule="evenodd" d="M10.0459 10.2273C10.0459 9.85072 10.3512 9.54546 10.7278 9.54546H14.8187C15.1952 9.54546 15.5005 9.85072 15.5005 10.2273V14.3182C15.5005 14.6947 15.1952 15 14.8187 15H10.7278C10.3512 15 10.0459 14.6947 10.0459 14.3182V10.2273ZM11.4096 10.9091V13.6364H14.1369V10.9091H11.4096Z" fill="#4C8BEA"/>
<path fill-rule="evenodd" clip-rule="evenodd" d="M0.500488 10.2273C0.500488 9.85072 0.805749 9.54546 1.18231 9.54546H5.27322C5.64977 9.54546 5.95503 9.85072 5.95503 10.2273V14.3182C5.95503 14.6947 5.64977 15 5.27322 15H1.18231C0.805749 15 0.500488 14.6947 0.500488 14.3182V10.2273ZM1.86412 10.9091V13.6364H4.5914V10.9091H1.86412Z" fill="#4C8BEA"/>
<path fill-rule="evenodd" clip-rule="evenodd" d="M8.00049 4.09091C8.37705 4.09091 8.68231 4.39617 8.68231 4.77273V6.81818H12.7732C13.1498 6.81818 13.455 7.12344 13.455 7.5V10.2273C13.455 10.6038 13.1498 10.9091 12.7732 10.9091C12.3967 10.9091 12.0914 10.6038 12.0914 10.2273V8.18182H3.90958V10.2273C3.90958 10.6038 3.60432 10.9091 3.22776 10.9091C2.8512 10.9091 2.54594 10.6038 2.54594 10.2273V7.5C2.54594 7.12344 2.8512 6.81818 3.22776 6.81818H7.31867V4.77273C7.31867 4.39617 7.62393 4.09091 8.00049 4.09091Z" fill="#4C8BEA"/>
</svg>
