<svg width="61" height="61" viewBox="0 0 61 61" fill="none" xmlns="http://www.w3.org/2000/svg">
<g clip-path="url(#clip0_78_2124)">
<path d="M30.5 61C47.3447 61 61 47.3447 61 30.5C61 13.6553 47.3447 0 30.5 0C13.6553 0 0 13.6553 0 30.5C0 47.3447 13.6553 61 30.5 61Z" fill="url(#paint0_linear_78_2124)"/>
<path fill-rule="evenodd" clip-rule="evenodd" d="M13.8061 30.178C22.6974 26.3042 28.6264 23.7503 31.593 22.5164C40.0632 18.9934 41.8232 18.3814 42.9703 18.3612C43.2227 18.3568 43.7868 18.4193 44.1522 18.7158C44.4608 18.9662 44.5457 19.3044 44.5863 19.5418C44.6269 19.7792 44.6775 20.3199 44.6373 20.7425C44.1783 25.5652 42.1922 37.2688 41.1818 42.6704C40.7543 44.956 39.9124 45.7224 39.0974 45.7974C37.3262 45.9603 35.9813 44.6268 34.2658 43.5023C31.5814 41.7427 30.0649 40.6473 27.4592 38.9302C24.4479 36.9458 26.4 35.8551 28.1161 34.0727C28.5652 33.6062 36.3691 26.5079 36.5202 25.864C36.5391 25.7835 36.5566 25.4833 36.3783 25.3248C36.1999 25.1663 35.9367 25.2205 35.7468 25.2636C35.4776 25.3247 31.1892 28.1591 22.8817 33.7669C21.6645 34.6028 20.5619 35.01 19.5741 34.9887C18.4851 34.9651 16.3903 34.3729 14.833 33.8667C12.9229 33.2458 11.4049 32.9176 11.5371 31.8631C11.6059 31.3139 12.3622 30.7522 13.8061 30.178Z" fill="white"/>
</g>
<defs>
<linearGradient id="paint0_linear_78_2124" x1="30.5" y1="0" x2="30.5" y2="60.5476" gradientUnits="userSpaceOnUse">
<stop stop-color="#2CA4E0"/>
<stop offset="1" stop-color="#0D83BF"/>
</linearGradient>
<clipPath id="clip0_78_2124">
<rect width="61" height="61" fill="white"/>
</clipPath>
</defs>
</svg>
