<svg width="62" height="62" viewBox="0 0 62 62" fill="none" xmlns="http://www.w3.org/2000/svg">
<g clip-path="url(#clip0_78_2127)">
<path d="M0 29.3928C0 15.5369 0 8.60896 4.30448 4.30448C8.60896 0 15.5369 0 29.3928 0H31.8422C45.6982 0 52.626 0 56.9306 4.30448C61.235 8.60896 61.235 15.5369 61.235 29.3928V31.8422C61.235 45.6982 61.235 52.626 56.9306 56.9306C52.626 61.235 45.6982 61.235 31.8422 61.235H29.3928C15.5369 61.235 8.60896 61.235 4.30448 56.9306C0 52.626 0 45.6982 0 31.8422V29.3928Z" fill="#0077FF"/>
<path d="M32.4772 44.0888C18.2505 44.0888 10.136 34.4347 9.79785 18.3701H16.9242C17.1583 30.1611 22.4119 35.1555 26.5733 36.1853V18.3701H33.2838V28.5392C37.3931 28.1015 41.7101 23.4675 43.1665 18.3701H49.8769C48.7585 24.6518 44.077 29.2858 40.7479 31.1909C44.077 32.7355 49.409 36.7774 51.4377 44.0888H44.051C42.4644 39.1974 38.5115 35.4129 33.2838 34.8981V44.0888H32.4772Z" fill="white"/>
</g>
<defs>
<clipPath id="clip0_78_2127">
<rect width="61.235" height="61.235" fill="white"/>
</clipPath>
</defs>
</svg>
