<svg width="147" height="39" viewBox="0 0 147 39" fill="none" xmlns="http://www.w3.org/2000/svg">
<path d="M25.6222 31H21.9437V14.7642H21.8327L15.2211 30.8097H12.4306L5.81889 14.7642H5.70791V31H2.01362V8.12081H6.75436L13.7624 25.3872H13.8892L20.8973 8.12081H25.6222V31ZM54.7325 24.5628H58.6963C58.8231 25.6092 59.3622 26.4548 60.3135 27.0996C61.2649 27.7338 62.4434 28.0509 63.8493 28.0509C65.2234 28.0509 66.3438 27.7444 67.2106 27.1313C68.0879 26.5182 68.5266 25.736 68.5266 24.7847C68.5266 23.9602 68.2095 23.2943 67.5753 22.787C66.941 22.269 65.9052 21.8409 64.4676 21.5027L61.5027 20.805C59.3992 20.3188 57.8348 19.563 56.8095 18.5377C55.7948 17.5124 55.2874 16.1806 55.2874 14.5422C55.2874 12.5233 56.0802 10.8849 57.6657 9.62706C59.2512 8.36921 61.2966 7.74028 63.8017 7.74028C66.3174 7.74028 68.3416 8.36393 69.8743 9.61121C71.4175 10.8479 72.2156 12.4757 72.2684 14.4946H68.368C68.2729 13.427 67.8131 12.592 66.9886 11.9895C66.1641 11.3764 65.0913 11.0699 63.77 11.0699C62.4804 11.0699 61.434 11.3606 60.6306 11.9419C59.8379 12.5233 59.4415 13.2896 59.4415 14.241C59.4415 15.002 59.748 15.6204 60.3611 16.096C60.9847 16.5717 61.9995 16.9786 63.4053 17.3169L66.0373 17.9194C68.3522 18.4479 70.0328 19.2195 71.0793 20.2343C72.1257 21.249 72.649 22.6073 72.649 24.3091C72.649 26.476 71.835 28.1989 70.2072 29.4779C68.59 30.7463 66.3967 31.3805 63.6273 31.3805C60.9847 31.3805 58.8601 30.7727 57.2535 29.5572C55.6574 28.331 54.817 26.6662 54.7325 24.5628ZM79.8314 31H75.7407V8.12081H79.8314V31ZM124.813 31L122.863 25.086H114.444L112.493 31H108.276L116.394 8.12081H121.008L129.126 31H124.813ZM118.598 12.1639L115.395 21.9308H121.895L118.709 12.1639H118.598ZM146.059 27.5435V31H131.583V8.12081H135.674V27.5435H146.059Z" fill="#5748EF"/>
<path d="M52.3805 20.1244C52.3805 23.4011 51.3235 25.9961 49.2095 27.9093C47.0954 29.812 44.2098 30.7633 40.5525 30.7633C36.9163 30.7633 34.0412 29.8067 31.9272 27.8935C29.8026 25.9697 28.7403 23.38 28.7403 20.1244C28.7403 17.4607 29.5013 15.2145 31.0234 13.3859C32.535 11.5572 34.5169 10.5161 36.9692 10.2624V14.2896C35.5316 14.5539 34.3795 15.2251 33.5127 16.3033C32.646 17.3708 32.2126 18.6446 32.2126 20.1244C32.2126 22.0904 32.9684 23.6601 34.4799 24.8334C35.9809 25.9961 38.0051 26.5775 40.5525 26.5775C43.121 26.5775 45.1558 25.9961 46.6568 24.8334C48.1577 23.6707 48.9082 22.0957 48.9082 20.1085C48.9082 18.597 48.5224 17.3286 47.7508 16.3033C46.9686 15.2674 45.8904 14.5909 44.5163 14.2738V10.2624C46.9686 10.6218 48.8924 11.6788 50.2876 13.4335C51.6829 15.1881 52.3805 17.4184 52.3805 20.1244Z" fill="#5748EF"/>
<path d="M108.172 20.1244C108.172 23.4011 107.115 25.9961 105 27.9093C102.886 29.812 100.001 30.7633 96.3435 30.7633C92.7073 30.7633 89.8323 29.8067 87.7182 27.8935C85.5936 25.9697 84.5313 23.38 84.5313 20.1244C84.5313 17.4607 85.2924 15.2145 86.8145 13.3859C88.326 11.5572 90.3079 10.5161 92.7602 10.2624V14.2896C91.3227 14.5539 90.1705 15.2251 89.3037 16.3033C88.437 17.3708 88.0036 18.6446 88.0036 20.1244C88.0036 22.0904 88.7594 23.6601 90.2709 24.8334C91.7719 25.9961 93.7961 26.5775 96.3435 26.5775C98.9121 26.5775 100.947 25.9961 102.448 24.8334C103.949 23.6707 104.699 22.0957 104.699 20.1085C104.699 18.597 104.313 17.3286 103.542 16.3033C102.76 15.2674 101.681 14.5909 100.307 14.2738V10.2624C102.76 10.6218 104.683 11.6788 106.079 13.4335C107.474 15.1881 108.172 17.4184 108.172 20.1244Z" fill="#5748EF"/>
</svg>
