<svg width="55" height="55" viewBox="0 0 55 55" fill="none" xmlns="http://www.w3.org/2000/svg">
<g clip-path="url(#clip0_78_2140)">
<path d="M54.9996 27.714C54.9996 25.8024 54.8481 23.8805 54.5249 22H28.5996V32.8286H43.4458C42.8298 36.3211 40.2982 39.8368 37.3996 41.8L37.9517 48.4L46.1996 48.4C51.4008 43.5023 54.9996 36.2694 54.9996 27.714Z" fill="#4285F4"/>
<path d="M27.9298 55C35.3634 55 41.6323 52.59 46.1998 48.43L37.3998 41.8C34.9287 43.46 31.6567 44.23 27.94 44.23C20.7495 44.23 14.2873 39.44 12.0998 33H3.2998V40.01C7.9787 49.2 17.5087 55 27.9298 55Z" fill="#34A853"/>
<path d="M12.1002 32.9996C10.8394 29.6528 11.3894 25.3464 12.6502 21.9996L13.2002 15.3996L3.30015 14.8496C-0.968971 22.4641 -1.0671 31.9851 3.20203 39.5996L12.1002 32.9996Z" fill="#FBBC04"/>
<path d="M28.4604 10.766C32.4745 10.7061 36.3541 12.1653 39.2612 14.8439L47.2998 7.07803C42.2098 2.46051 35.4541 -0.078124 28.4604 0.001833C17.8147 0.001833 8.07949 5.65495 3.2998 14.85L12.6523 22C14.8766 15.5535 21.115 10.766 28.4604 10.766Z" fill="#EA4335"/>
</g>
<defs>
<clipPath id="clip0_78_2140">
<rect width="55" height="55" fill="white"/>
</clipPath>
</defs>
</svg>
