<svg width="89" height="89" viewBox="0 0 89 89" fill="none" xmlns="http://www.w3.org/2000/svg">
<g clip-path="url(#clip0_78_2145)">
<path d="M0 15.1132C0 6.76641 6.76641 0 15.1132 0H73.8868C82.2336 0 89 6.76641 89 15.1132V73.8868C89 82.2336 82.2336 89 73.8868 89H15.1132C6.76641 89 0 82.2336 0 73.8868V15.1132Z" fill="white"/>
<path d="M75.566 44.5C75.566 55.1653 67.0234 63.8113 56.4856 63.8113C45.9478 63.8113 37.4052 55.1653 37.4052 44.5C37.4052 33.8346 45.9478 25.1887 56.4856 25.1887L75.566 25.1887L75.566 44.5Z" fill="#EC5581"/>
<path d="M15.1132 44.5C15.1132 33.8347 23.6558 25.1887 34.1936 25.1887C44.7315 25.1887 53.2741 33.8347 53.2741 44.5C53.2741 55.1653 44.7315 63.8113 34.1936 63.8113H15.1132V44.5Z" fill="#31C1D6"/>
<path d="M53.463 43.9264C53.463 36.4313 48.1733 30.7335 45.3396 28.8215C42.6948 30.606 37.4052 35.9724 37.4052 43.9264C37.4052 51.8804 42.5059 58.0753 45.3396 60.1785C48.1733 58.0753 53.463 53.2953 53.463 43.9264Z" fill="#2C5581"/>
</g>
<defs>
<clipPath id="clip0_78_2145">
<rect width="89" height="89" fill="white"/>
</clipPath>
</defs>
</svg>
