<svg width="960" height="968" viewBox="0 0 960 968" fill="none" xmlns="http://www.w3.org/2000/svg">
<g clip-path="url(#clip0_44_6789)">
<path d="M960 -200H-960V1080H960V-200Z" fill="#F9FBFC"/>
<mask id="mask0_44_6789" style="mask-type:luminance" maskUnits="userSpaceOnUse" x="-960" y="-200" width="1920" height="1280">
<path d="M960 -200H-960V1080H960V-200Z" fill="white"/>
</mask>
<g mask="url(#mask0_44_6789)">
<g opacity="0.5">
<path d="M534.787 811.968L526.339 803.52C524.291 801.472 520.963 800.96 518.915 803.008C516.867 804.8 516.355 808.384 518.403 810.432C521.219 813.248 524.035 816.064 526.851 818.88C528.899 820.928 532.227 821.44 534.275 819.392C536.323 817.6 537.091 814.016 534.787 811.968Z" fill="#FFE10A"/>
<path d="M593.154 775.36C587.522 769.728 581.89 764.096 576.514 758.464C571.906 753.856 564.226 760.512 568.834 765.12C574.466 770.752 579.842 776.384 585.474 782.016C590.082 786.88 598.018 780.224 593.154 775.36Z" fill="#FFE10A"/>
<path d="M645.633 723.136C642.817 719.808 640.001 716.48 637.185 713.152C632.833 708.032 625.153 714.944 629.505 719.808C632.321 723.136 635.137 726.464 637.953 729.792C642.049 735.168 649.729 728.256 645.633 723.136Z" fill="#FFE10A"/>
<path d="M695.811 671.168C694.275 669.376 692.483 667.84 690.691 666.048C688.899 664.256 685.571 663.488 683.523 665.536C681.731 667.328 680.963 670.656 683.011 672.704C684.803 674.496 686.339 676.032 688.131 677.824C690.179 679.616 693.251 680.384 695.299 678.336C697.347 676.544 697.859 673.216 695.811 671.168Z" fill="#FFE10A"/>
<path d="M521.475 743.36C518.659 740.032 515.843 736.704 513.027 733.376C508.675 728.256 500.995 734.912 505.347 740.032C508.163 743.36 510.979 746.688 513.795 750.016C517.891 755.136 525.571 748.48 521.475 743.36Z" fill="#FFE10A"/>
<path d="M574.978 694.72C569.858 689.6 564.994 684.736 559.874 679.616C555.266 675.008 547.33 681.664 552.194 686.272C557.314 691.392 562.178 696.256 567.298 701.376C571.906 705.984 579.842 699.328 574.978 694.72Z" fill="#FFE10A"/>
<path d="M622.082 647.616C620.29 645.312 618.754 643.264 616.962 640.96C615.426 638.912 611.586 638.656 609.794 640.448C607.746 642.496 607.49 645.312 609.282 647.616C611.074 649.92 612.61 651.968 614.402 654.272C615.938 656.32 619.778 656.576 621.57 654.784C623.618 652.992 623.618 649.92 622.082 647.616Z" fill="#FFE10A"/>
<path d="M724.226 734.912C721.41 731.584 718.594 728.256 715.778 724.928C711.682 719.808 704.002 726.464 708.098 731.584L716.546 741.568C720.642 746.688 728.578 740.032 724.226 734.912Z" fill="#FFE10A"/>
<path d="M668.931 793.536C665.603 790.208 662.275 786.88 658.947 783.552C656.899 781.504 653.827 781.248 651.779 783.04C649.731 784.832 649.219 788.416 651.267 790.208C654.595 793.536 657.923 796.864 661.251 800.192C663.299 802.24 666.371 802.496 668.419 800.704C670.467 799.168 670.979 795.584 668.931 793.536Z" fill="#FFE10A"/>
<path d="M611.843 840.64C607.235 836.288 602.883 831.68 598.275 827.328C593.667 822.72 585.987 829.376 590.595 833.984C594.947 838.592 599.555 842.944 603.907 847.552C608.771 851.904 616.707 845.248 611.843 840.64Z" fill="#FFE10A"/>
<path d="M734.468 795.328C729.86 790.976 725.508 786.368 720.9 782.016C716.292 777.408 708.612 784.064 713.22 788.672C717.572 793.28 722.18 797.632 726.532 802.24C731.14 806.848 739.076 799.936 734.468 795.328Z" fill="#FFE10A"/>
<path d="M672.258 849.088C669.442 846.272 666.626 843.456 663.81 840.64C662.018 838.848 658.69 838.08 656.642 840.128C654.85 841.92 654.082 845.248 656.13 847.296C658.946 850.112 661.762 852.928 664.578 855.744C666.37 857.536 669.698 858.304 671.746 856.256C673.538 854.464 674.306 850.88 672.258 849.088Z" fill="#FFE10A"/>
<path d="M737.796 853.952C733.956 850.112 729.86 846.272 726.02 842.176C723.972 840.128 720.9 839.872 718.852 841.664C716.804 843.456 716.292 847.04 718.34 848.832C722.18 852.672 726.02 856.768 730.116 860.608C732.164 862.656 735.236 863.168 737.54 861.12C739.332 859.584 739.844 856 737.796 853.952Z" fill="#FFE10A"/>
<path d="M503.043 672.96C497.923 667.84 493.059 662.976 487.939 657.856C483.331 653.248 475.395 659.904 480.259 664.512C485.379 669.632 490.243 674.496 495.363 679.616C499.715 684.224 507.651 677.568 503.043 672.96Z" fill="#FFE10A"/>
<path d="M555.01 615.872C551.682 612.544 548.354 609.216 545.026 605.888C542.978 603.84 539.906 603.328 537.858 605.376C535.81 607.168 535.298 610.752 537.346 612.544C540.674 615.872 544.002 619.2 547.33 622.528C549.378 624.576 552.45 625.088 554.754 623.04C556.546 621.504 557.058 617.92 555.01 615.872Z" fill="#FFE10A"/>
<path d="M491.266 612.544C488.45 609.728 485.634 606.912 482.818 604.096C481.026 602.304 477.698 601.536 475.65 603.584C473.858 605.376 473.09 608.704 475.138 610.752C477.954 613.568 480.77 616.384 483.586 619.2C485.378 620.992 488.706 621.76 491.01 619.712C492.546 617.92 493.314 614.592 491.266 612.544Z" fill="#FFE10A"/>
</g>
<g opacity="0.5">
<path d="M207.621 479.936L199.173 471.488C197.125 469.44 193.797 468.928 191.749 470.976C189.701 472.768 189.189 476.352 191.237 478.4C194.053 481.216 196.869 484.032 199.685 486.848C201.733 488.896 205.061 489.408 207.109 487.36C208.901 485.312 209.669 481.984 207.621 479.936Z" fill="#FFE10A"/>
<path d="M265.988 443.328C260.356 437.696 254.724 432.064 249.348 426.432C244.74 421.824 237.06 428.48 241.668 433.088C247.3 438.72 252.676 444.352 258.308 449.984C262.66 454.848 270.596 447.936 265.988 443.328Z" fill="#FFE10A"/>
<path d="M318.212 391.104C315.396 387.776 312.58 384.448 309.764 381.12C305.412 376 297.732 382.912 302.084 387.776C304.9 391.104 307.716 394.432 310.532 397.76C314.628 402.88 322.308 396.224 318.212 391.104Z" fill="#FFE10A"/>
<path d="M368.389 339.137C366.853 337.345 365.061 335.809 363.269 334.017C361.477 332.225 358.149 331.457 356.101 333.505C354.309 335.297 353.541 338.625 355.589 340.673C357.381 342.465 358.917 344.001 360.709 345.793C362.757 347.585 365.829 348.353 367.877 346.305C369.925 344.513 370.437 341.185 368.389 339.137Z" fill="#FFE10A"/>
<path d="M194.054 411.072C191.238 407.744 188.422 404.416 185.606 401.088C181.254 395.968 173.574 402.624 177.926 407.744C180.742 411.072 183.558 414.4 186.374 417.728C190.47 423.104 198.406 416.192 194.054 411.072Z" fill="#FFE10A"/>
<path d="M247.812 362.432C242.692 357.312 237.828 352.448 232.708 347.328C228.1 342.72 220.164 349.376 225.028 353.984C230.148 359.104 235.012 363.968 240.132 369.088C244.484 373.952 252.42 367.296 247.812 362.432Z" fill="#FFE10A"/>
<path d="M294.66 315.583C292.868 313.279 291.332 311.231 289.54 308.927C288.004 306.879 284.163 306.623 282.371 308.415C280.323 310.463 280.068 313.279 281.86 315.583C283.652 317.887 285.188 319.935 286.98 322.239C288.516 324.287 292.355 324.543 294.147 322.751C296.195 320.703 296.452 317.887 294.66 315.583Z" fill="#FFE10A"/>
<path d="M397.059 402.88C394.243 399.552 391.427 396.224 388.611 392.896C384.515 387.776 376.835 394.432 380.931 399.552L389.379 409.536C393.475 414.656 401.155 407.744 397.059 402.88Z" fill="#FFE10A"/>
<path d="M341.508 461.504C338.18 458.176 334.852 454.848 331.524 451.52C329.476 449.472 326.404 449.216 324.356 451.008C322.308 452.8 321.796 456.384 323.844 458.176C327.172 461.504 330.5 464.832 333.828 468.16C335.876 470.208 338.948 470.464 340.996 468.672C343.044 466.88 343.556 463.552 341.508 461.504Z" fill="#FFE10A"/>
<path d="M284.678 508.352C280.07 504 275.718 499.392 271.11 495.04C266.502 490.432 258.822 497.088 263.43 501.696C267.782 506.304 272.39 510.656 276.742 515.264C281.606 519.872 289.286 513.216 284.678 508.352Z" fill="#FFE10A"/>
<path d="M407.044 463.04C402.436 458.688 398.084 454.08 393.476 449.728C388.868 445.12 381.188 451.776 385.796 456.384C390.148 460.992 394.756 465.344 399.108 469.952C403.972 474.56 411.908 467.904 407.044 463.04Z" fill="#FFE10A"/>
<path d="M344.836 516.8C342.02 513.984 339.204 511.168 336.388 508.352C334.596 506.56 331.268 505.792 329.22 507.84C327.428 509.632 326.66 512.96 328.708 515.008C331.524 517.824 334.34 520.64 337.156 523.456C338.948 525.248 342.277 526.016 344.325 523.968C346.373 522.176 346.884 518.848 344.836 516.8Z" fill="#FFE10A"/>
<path d="M410.371 521.664C406.531 517.824 402.435 513.984 398.595 509.888C396.547 507.84 393.475 507.584 391.427 509.376C389.379 511.168 388.867 514.752 390.915 516.544C394.755 520.384 398.595 524.48 402.691 528.32C404.739 530.368 407.811 530.88 410.115 528.832C411.907 527.296 412.419 523.712 410.371 521.664Z" fill="#FFE10A"/>
<path d="M175.621 340.672C170.501 335.552 165.637 330.688 160.517 325.568C155.909 320.96 147.973 327.616 152.837 332.224C157.957 337.344 162.821 342.208 167.941 347.328C172.549 352.192 180.229 345.536 175.621 340.672Z" fill="#FFE10A"/>
<path d="M227.588 283.584C224.26 280.256 220.932 276.928 217.604 273.6C215.556 271.552 212.484 271.04 210.436 273.088C208.388 274.88 207.876 278.464 209.924 280.256C213.252 283.584 216.58 286.912 219.908 290.24C221.956 292.288 225.028 292.8 227.332 290.752C229.124 289.216 229.636 285.632 227.588 283.584Z" fill="#FFE10A"/>
<path d="M163.844 280.256C161.028 277.44 158.212 274.624 155.396 271.808C153.604 270.016 150.276 269.248 148.228 271.296C146.436 273.088 145.668 276.416 147.716 278.464C150.532 281.28 153.348 284.096 156.164 286.912C157.956 288.704 161.284 289.472 163.588 287.424C165.38 285.888 165.892 282.304 163.844 280.256Z" fill="#FFE10A"/>
</g>
<g opacity="0.5">
<path d="M33.5403 90.5601L25.0922 82.1121C23.0442 80.0641 19.7163 79.5521 17.6683 81.6001C15.6203 83.3921 15.1083 86.9761 17.1563 89.0241C19.9723 91.8401 22.7883 94.6561 25.6042 97.4721C27.6523 99.5201 30.9803 100.032 33.0283 97.9841C34.8203 96.1921 35.5883 92.6081 33.5403 90.5601Z" fill="#FFE10A"/>
<path d="M91.9069 53.9517C86.2749 48.3197 80.6429 42.6877 75.2669 37.0557C70.6589 32.4477 62.9789 39.1037 67.5869 43.7117C73.2189 49.3437 78.5949 54.9757 84.2269 60.6077C88.5789 65.4717 96.5149 58.8157 91.9069 53.9517Z" fill="#FFE10A"/>
<path d="M144.131 1.72772C141.315 -1.60028 138.499 -4.92828 135.683 -8.25628C131.331 -13.3763 123.651 -6.46428 128.003 -1.60028C130.819 1.72772 133.635 5.05572 136.451 8.38372C140.547 13.7597 148.227 6.84772 144.131 1.72772Z" fill="#FFE10A"/>
<path d="M19.9729 21.9518C17.1569 18.6238 14.341 15.2958 11.525 11.9678C7.17296 6.84781 -0.507041 13.5038 3.84496 18.6238C6.66096 21.9518 9.47693 25.2798 12.2929 28.6078C16.3889 33.7278 24.3249 27.0718 19.9729 21.9518Z" fill="#FFE10A"/>
<path d="M222.978 13.5045C220.162 10.1765 217.346 6.84854 214.53 3.52054C210.434 -1.59946 202.754 5.05654 206.85 10.1765L215.298 20.1605C219.394 25.2805 227.074 18.6245 222.978 13.5045Z" fill="#FFE10A"/>
<path d="M167.427 72.128C164.099 68.8 160.771 65.472 157.443 62.144C155.395 60.096 152.323 59.84 150.275 61.632C148.227 63.424 147.715 67.008 149.763 68.8C153.091 72.128 156.419 75.456 159.747 78.784C161.795 80.832 164.867 81.088 166.915 79.296C168.963 77.76 169.475 74.176 167.427 72.128Z" fill="#FFE10A"/>
<path d="M110.597 119.232C105.989 114.88 101.637 110.272 97.0286 105.92C92.4206 101.312 84.7406 107.968 89.3486 112.576C93.7006 117.184 98.3086 121.536 102.661 126.144C107.269 130.752 115.205 123.84 110.597 119.232Z" fill="#FFE10A"/>
<path d="M232.963 73.9197C228.355 69.5677 224.003 64.9597 219.395 60.6077C214.787 55.9997 207.107 62.6557 211.715 67.2637C216.067 71.8717 220.675 76.2237 225.027 80.8317C229.891 85.4397 237.571 78.5277 232.963 73.9197Z" fill="#FFE10A"/>
<path d="M170.755 127.68C167.939 124.864 165.123 122.048 162.307 119.232C160.515 117.44 157.187 116.672 155.139 118.72C153.347 120.512 152.579 123.84 154.627 125.888C157.443 128.704 160.259 131.52 163.075 134.336C164.867 136.128 168.195 136.896 170.243 134.848C172.291 133.056 172.803 129.728 170.755 127.68Z" fill="#FFE10A"/>
<path d="M236.29 132.544C232.45 128.704 228.354 124.864 224.514 120.768C222.466 118.72 219.394 118.464 217.346 120.256C215.298 122.048 214.786 125.632 216.834 127.424C220.674 131.264 224.514 135.36 228.61 139.2C230.658 141.248 233.73 141.76 236.034 139.712C237.826 138.176 238.338 134.592 236.29 132.544Z" fill="#FFE10A"/>
</g>
<g opacity="0.5">
<path d="M830.723 418.239L822.274 409.791C820.226 407.743 816.898 407.231 814.85 409.279C812.802 411.071 812.29 414.655 814.338 416.703C817.154 419.519 819.97 422.335 822.786 425.151C824.834 427.199 828.162 427.711 830.21 425.663C832.002 423.615 832.771 420.287 830.723 418.239Z" fill="#FFE10A"/>
<path d="M889.092 381.632C883.46 376 877.828 370.368 872.452 364.736C867.844 360.128 860.164 366.784 864.772 371.392C870.404 377.024 875.78 382.656 881.412 388.288C886.02 392.896 893.7 386.24 889.092 381.632Z" fill="#FFE10A"/>
<path d="M941.312 329.408C938.496 326.08 935.68 322.752 932.864 319.424C928.512 314.304 920.832 321.216 925.184 326.08C928 329.408 930.816 332.736 933.632 336.064C937.728 341.184 945.664 334.528 941.312 329.408Z" fill="#FFE10A"/>
<path d="M817.151 349.375C814.335 346.047 811.519 342.719 808.703 339.391C804.351 334.271 796.671 340.927 801.023 346.047C803.839 349.375 806.655 352.703 809.471 356.031C813.567 361.407 821.503 354.495 817.151 349.375Z" fill="#FFE10A"/>
<path d="M870.913 300.735C865.793 295.615 860.929 290.751 855.809 285.631C851.201 281.023 843.265 287.679 848.129 292.287C853.249 297.407 858.113 302.271 863.233 307.391C867.841 312.255 875.521 305.599 870.913 300.735Z" fill="#FFE10A"/>
<path d="M917.761 253.887C915.969 251.583 914.433 249.535 912.641 247.231C911.105 245.183 907.265 244.927 905.473 246.719C903.425 248.767 903.169 251.583 904.961 253.887C906.753 256.191 908.289 258.239 910.081 260.543C911.617 262.591 915.456 262.847 917.248 261.055C919.296 259.007 919.553 256.191 917.761 253.887Z" fill="#FFE10A"/>
<path d="M964.609 399.808C961.281 396.48 957.953 393.152 954.625 389.824C952.577 387.776 949.505 387.52 947.457 389.312C945.409 391.104 944.897 394.688 946.945 396.48C950.273 399.808 953.601 403.136 956.929 406.464C958.977 408.512 962.049 408.768 964.097 406.976C966.145 405.184 966.657 401.856 964.609 399.808Z" fill="#FFE10A"/>
<path d="M907.779 446.655C903.171 442.303 898.819 437.695 894.211 433.343C889.603 428.735 881.923 435.391 886.531 439.999C890.883 444.607 895.491 448.959 899.843 453.567C904.707 458.175 912.387 451.263 907.779 446.655Z" fill="#FFE10A"/>
<path d="M967.937 455.103C965.121 452.287 962.305 449.471 959.489 446.655C957.697 444.863 954.37 444.095 952.322 446.143C950.53 447.935 949.761 451.263 951.809 453.311C954.625 456.127 957.441 458.943 960.257 461.759C962.049 463.551 965.377 464.319 967.425 462.271C969.473 460.479 969.985 457.151 967.937 455.103Z" fill="#FFE10A"/>
<path d="M798.722 278.975C793.602 273.855 788.738 268.991 783.618 263.871C779.01 259.263 771.074 265.919 775.938 270.527C781.058 275.647 785.922 280.511 791.042 285.631C795.65 290.495 803.33 283.583 798.722 278.975Z" fill="#FFE10A"/>
<path d="M850.689 221.888C847.361 218.56 844.033 215.232 840.705 211.904C838.657 209.856 835.585 209.344 833.537 211.392C831.489 213.184 830.977 216.768 833.025 218.56C836.353 221.888 839.681 225.216 843.009 228.544C845.057 230.592 848.129 231.104 850.433 229.056C852.225 227.52 852.737 223.936 850.689 221.888Z" fill="#FFE10A"/>
<path d="M786.945 218.559C784.129 215.743 781.313 212.927 778.497 210.111C776.705 208.319 773.377 207.551 771.329 209.599C769.537 211.391 768.769 214.719 770.817 216.767C773.633 219.583 776.449 222.4 779.265 225.216C781.057 227.008 784.385 227.775 786.689 225.727C788.481 224.191 788.993 220.607 786.945 218.559Z" fill="#FFE10A"/>
</g>
<g opacity="0.5">
<path d="M498.178 948.928C496.642 947.136 494.85 945.6 493.058 943.808C491.266 942.016 487.938 941.248 485.89 943.296C484.098 945.088 483.33 948.416 485.378 950.464C487.17 952.256 488.706 953.792 490.498 955.584C492.546 957.376 495.618 958.144 497.666 956.096C499.458 954.304 500.226 950.976 498.178 948.928Z" fill="#FFE10A"/>
<path d="M377.345 972.223C372.225 967.103 367.362 962.239 362.242 957.119C357.634 952.511 349.698 959.167 354.562 963.775C359.682 968.895 364.545 973.759 369.665 978.879C374.273 983.743 381.953 977.087 377.345 972.223Z" fill="#FFE10A"/>
<path d="M424.194 925.376C422.402 923.072 420.866 921.024 419.074 918.72C417.538 916.672 413.698 916.416 411.906 918.208C409.858 920.256 409.602 923.072 411.394 925.376C413.186 927.68 414.722 929.728 416.514 932.032C418.05 934.08 421.89 934.336 423.682 932.544C425.986 930.496 425.986 927.68 424.194 925.376Z" fill="#FFE10A"/>
<path d="M305.152 950.464C300.032 945.344 295.168 940.48 290.048 935.36C285.44 930.752 277.504 937.408 282.368 942.016C287.488 947.136 292.352 952 297.472 957.12C302.08 961.984 310.016 955.328 305.152 950.464Z" fill="#FFE10A"/>
<path d="M357.377 893.376C354.049 890.048 350.721 886.72 347.393 883.392C345.345 881.344 342.273 880.832 340.225 882.88C338.177 884.672 337.665 888.256 339.713 890.048C343.041 893.376 346.369 896.704 349.697 900.032C351.745 902.08 354.817 902.592 357.121 900.544C358.657 899.008 359.169 895.424 357.377 893.376Z" fill="#FFE10A"/>
<path d="M293.633 890.048C290.817 887.232 288.001 884.416 285.185 881.6C283.393 879.808 280.065 879.04 278.017 881.088C276.225 882.88 275.457 886.208 277.505 888.256C280.321 891.072 283.137 893.888 285.953 896.704C287.745 898.496 291.073 899.264 293.377 897.216C294.913 895.68 295.681 892.096 293.633 890.048Z" fill="#FFE10A"/>
</g>
<g opacity="0.5">
<path d="M972.803 967.103C971.267 965.567 969.987 964.031 968.451 962.751C966.659 960.959 963.843 960.447 962.051 962.239C960.259 963.775 959.747 966.847 961.539 968.639C963.075 970.175 964.355 971.711 965.891 972.991C967.683 974.527 970.499 975.295 972.291 973.503C974.083 971.967 974.595 968.895 972.803 967.103Z" fill="#4B7EFF"/>
<path d="M907.778 946.623C906.242 944.575 904.705 942.783 903.425 940.735C901.889 938.943 898.817 938.687 897.025 940.223C895.233 942.015 894.978 944.575 896.514 946.623C898.05 948.671 899.585 950.463 900.865 952.511C902.401 954.303 905.473 954.559 907.265 953.023C909.313 951.231 909.314 948.671 907.778 946.623Z" fill="#4B7EFF"/>
<path d="M803.075 968.639C798.723 964.287 794.116 959.679 789.764 955.327C785.668 951.231 778.755 957.119 782.851 961.215C787.203 965.567 791.812 970.175 796.164 974.527C800.26 978.623 807.171 972.735 803.075 968.639Z" fill="#4B7EFF"/>
<path d="M848.901 918.463C845.829 915.391 843.013 912.575 839.941 909.503C838.149 907.711 835.589 907.455 833.541 908.991C831.749 910.527 831.237 913.599 833.029 915.391C836.101 918.463 838.917 921.279 841.989 924.351C843.781 926.143 846.597 926.399 848.389 924.863C850.181 923.327 850.437 920.255 848.901 918.463Z" fill="#4B7EFF"/>
<path d="M792.579 915.391C790.019 912.831 787.715 910.527 785.155 907.967C783.363 906.175 780.547 905.663 778.755 907.455C776.963 908.991 776.451 912.063 778.243 913.855C780.803 916.415 783.107 918.719 785.667 921.279C787.459 923.071 790.275 923.583 792.067 921.791C793.859 920.255 794.371 917.183 792.579 915.391Z" fill="#4B7EFF"/>
</g>
<g opacity="0.5">
<path d="M550.15 506.816L541.19 497.856C539.142 495.808 535.558 495.04 533.254 497.344C531.206 499.392 530.438 502.976 532.742 505.28C535.814 508.352 538.63 511.168 541.702 514.24C543.75 516.288 547.334 517.056 549.638 514.752C551.686 512.704 552.198 508.864 550.15 506.816Z" fill="#4B7EFF"/>
<path d="M611.589 468.16C605.701 462.272 599.813 456.384 593.925 450.496C589.061 445.632 580.869 452.544 585.733 457.664C591.621 463.552 597.509 469.44 603.397 475.584C608.261 480.192 616.709 473.024 611.589 468.16Z" fill="#4B7EFF"/>
<path d="M666.884 413.119C663.812 409.535 660.996 405.951 657.924 402.623C653.316 397.247 645.124 404.415 649.732 409.791C652.804 413.375 655.62 416.96 658.692 420.288C663.044 425.664 671.236 418.495 666.884 413.119Z" fill="#4B7EFF"/>
<path d="M719.876 358.08C718.084 356.288 716.292 354.496 714.5 352.704C712.452 350.656 709.124 350.144 706.82 352.192C704.772 354.24 704.004 357.824 706.308 359.872C708.1 361.664 709.892 363.456 711.684 365.248C713.732 367.296 717.06 367.808 719.364 365.76C721.412 363.968 721.924 360.384 719.876 358.08Z" fill="#4B7EFF"/>
<path d="M535.811 434.112C532.739 430.528 529.923 426.944 526.851 423.616C522.243 418.24 514.307 425.408 518.659 430.784C521.475 434.368 524.547 437.952 527.363 441.536C532.227 446.912 540.419 439.744 535.811 434.112Z" fill="#4B7EFF"/>
<path d="M592.388 382.912C587.012 377.536 581.636 372.416 576.516 367.04C571.652 362.176 563.461 369.089 568.325 374.209C573.701 379.585 578.82 384.704 584.196 390.08C589.06 394.944 597.508 387.776 592.388 382.912Z" fill="#4B7EFF"/>
<path d="M642.051 333.504C640.259 331.2 638.467 328.896 636.675 326.336C634.883 324.032 631.043 323.776 628.995 325.824C626.691 327.872 626.691 330.944 628.483 333.504C630.275 335.808 632.067 338.112 633.859 340.672C635.651 342.976 639.491 343.232 641.539 341.184C643.587 338.88 643.843 335.808 642.051 333.504Z" fill="#4B7EFF"/>
<path d="M749.827 425.408C746.755 421.824 743.939 418.24 740.867 414.912C736.515 409.536 728.323 416.704 732.675 422.08L741.38 432.832C746.244 437.952 754.435 430.784 749.827 425.408Z" fill="#4B7EFF"/>
<path d="M691.46 487.36C687.876 483.776 684.292 480.192 680.964 476.864C678.916 474.816 675.588 474.304 673.284 476.352C671.236 478.144 670.723 481.984 672.771 484.032C676.355 487.616 679.939 491.2 683.267 494.528C685.315 496.576 688.643 497.088 690.947 495.04C692.995 493.248 693.508 489.408 691.46 487.36Z" fill="#4B7EFF"/>
<path d="M631.301 536.768C626.693 532.16 621.829 527.296 617.221 522.688C612.357 517.824 604.165 524.736 609.029 529.856C613.637 534.464 618.501 539.328 623.109 543.936C627.973 549.056 636.421 541.888 631.301 536.768Z" fill="#4B7EFF"/>
<path d="M760.578 489.152C755.97 484.544 751.106 479.68 746.498 475.072C741.634 470.208 733.442 477.12 738.306 482.24C742.914 486.848 747.778 491.712 752.386 496.32C757.25 501.184 765.442 494.016 760.578 489.152Z" fill="#4B7EFF"/>
<path d="M695.043 545.728C691.971 542.912 689.155 539.84 686.083 537.024C684.035 534.976 680.707 534.464 678.659 536.512C676.611 538.304 676.098 541.888 678.146 543.936C680.962 547.008 684.035 549.824 686.851 552.896C688.899 554.944 692.227 555.456 694.531 553.408C696.579 551.36 697.091 547.776 695.043 545.728Z" fill="#4B7EFF"/>
<path d="M764.161 550.848C760.065 546.752 755.969 542.656 751.617 538.56C749.569 536.512 746.241 536 743.937 538.048C741.889 539.84 741.377 543.68 743.425 545.728C747.521 549.824 751.617 553.92 755.713 558.272C757.761 560.32 761.089 560.832 763.393 558.784C765.697 556.992 766.209 553.152 764.161 550.848Z" fill="#4B7EFF"/>
<path d="M516.356 359.872C510.98 354.496 505.86 349.376 500.484 344C495.62 339.136 487.428 346.048 492.292 351.168C497.668 356.544 502.788 361.664 508.164 367.04C513.028 371.904 521.476 364.992 516.356 359.872Z" fill="#4B7EFF"/>
<path d="M571.141 299.712C567.557 296.128 563.973 292.544 560.389 289.216C558.341 287.168 555.013 286.656 552.709 288.704C550.661 290.496 550.149 294.336 552.197 296.384C555.781 299.968 559.365 303.552 562.693 307.136C564.741 309.184 568.069 309.696 570.373 307.648C572.933 305.6 573.445 301.76 571.141 299.712Z" fill="#4B7EFF"/>
<path d="M504.067 296.128C500.995 293.056 498.179 290.24 495.107 287.168C493.059 285.12 489.731 284.608 487.427 286.656C485.379 288.704 484.612 292.288 486.916 294.336C489.988 297.408 492.804 300.224 495.876 303.296C497.924 305.344 501.252 305.856 503.556 303.808C505.604 302.016 506.115 298.432 504.067 296.128Z" fill="#4B7EFF"/>
</g>
<g opacity="0.5">
<path d="M1.02473 569.279C-2.04727 565.439 -5.3753 561.855 -8.4473 558.015C-13.0553 552.383 -21.7594 559.807 -17.1514 565.439L-7.93527 576.703C-2.81527 582.591 5.88873 574.911 1.02473 569.279Z" fill="#CA93FF"/>
<path d="M12.547 636.863C7.42704 631.999 2.56297 626.879 -2.55703 622.015C-7.67703 616.895 -16.3809 624.319 -11.2609 629.439C-6.39693 634.559 -1.27696 639.423 3.58704 644.543C8.96304 649.663 17.667 641.983 12.547 636.863Z" fill="#CA93FF"/>
<path d="M16.1302 702.4C11.7782 698.048 7.4263 693.696 2.8183 689.344C0.514303 687.04 -2.81373 686.528 -5.37373 688.832C-7.67773 690.88 -8.18976 694.72 -5.88576 697.024C-1.53376 701.376 2.81818 705.728 7.17018 710.336C9.47418 712.64 13.0582 713.151 15.3622 710.847C17.9222 708.799 18.4342 704.704 16.1302 702.4Z" fill="#CA93FF"/>
</g>
<g opacity="0.5">
<path d="M870.655 820.672L861.183 811.199C859.135 809.151 855.295 808.383 852.991 810.687C850.687 812.735 850.175 816.575 852.479 818.879C855.551 821.951 858.623 825.024 861.951 828.352C863.999 830.4 867.839 831.167 870.143 828.863C872.191 827.071 872.959 822.976 870.655 820.672Z" fill="#CA93FF"/>
<path d="M935.937 779.711C929.793 773.311 923.393 767.167 917.249 760.767C912.129 755.647 903.425 763.071 908.545 768.191C914.689 774.591 921.089 780.735 927.233 787.135C932.609 792.767 941.313 785.087 935.937 779.711Z" fill="#CA93FF"/>
<path d="M855.555 743.871C852.483 740.031 849.155 736.447 846.083 732.607C841.219 726.975 832.771 734.399 837.379 740.031C840.451 743.871 843.523 747.455 846.851 751.295C851.715 757.183 860.419 749.503 855.555 743.871Z" fill="#CA93FF"/>
<path d="M915.714 689.343C910.082 683.711 904.45 678.079 898.818 672.447C893.698 667.327 884.994 674.751 890.114 679.871C895.746 685.503 901.377 691.135 907.009 696.767C912.129 702.143 920.834 694.719 915.714 689.343Z" fill="#CA93FF"/>
<path d="M968.195 636.863C966.403 634.303 964.355 631.743 962.563 629.439C960.771 627.135 956.675 626.879 954.627 628.927C952.323 631.231 952.067 634.303 954.115 636.863C955.907 639.423 957.955 641.983 959.747 644.287C961.539 646.591 965.635 646.847 967.683 644.799C969.987 642.751 970.243 639.423 968.195 636.863Z" fill="#CA93FF"/>
<path d="M956.93 852.671C951.81 847.807 946.946 842.687 941.826 837.823C936.706 832.703 928.002 840.127 933.122 845.247C937.986 850.367 943.106 855.231 947.97 860.351C953.602 865.471 962.306 858.047 956.93 852.671Z" fill="#CA93FF"/>
<path d="M835.073 665.023C829.441 659.391 823.809 653.759 818.177 648.127C813.057 643.007 804.353 650.431 809.473 655.551C815.105 661.183 820.737 666.815 826.369 672.447C831.489 677.823 840.193 670.399 835.073 665.023Z" fill="#CA93FF"/>
<path d="M893.186 601.28C889.346 597.44 885.762 593.856 881.922 590.016C879.618 587.712 876.29 587.2 873.73 589.504C871.426 591.552 870.914 595.392 873.218 597.696C877.058 601.536 880.642 605.12 884.482 608.96C886.786 611.264 890.114 611.776 892.674 609.472C894.978 607.424 895.49 603.328 893.186 601.28Z" fill="#CA93FF"/>
<path d="M821.761 597.44C818.689 594.368 815.617 591.296 812.289 587.968C810.241 585.92 806.401 585.152 804.097 587.456C802.049 589.504 801.281 593.344 803.585 595.648C806.657 598.72 809.729 601.792 813.057 605.12C815.105 607.168 818.945 607.936 821.249 605.632C823.553 603.584 824.065 599.744 821.761 597.44Z" fill="#CA93FF"/>
</g>
<g opacity="0.5">
<path d="M896.767 20.6711C891.647 15.8071 886.783 10.6871 881.663 5.82311C876.543 0.703108 867.839 8.12711 872.959 13.2471C877.823 18.3671 882.943 23.2311 887.807 28.3511C893.183 33.4711 901.887 25.7911 896.767 20.6711Z" fill="#CA93FF"/>
<path d="M964.097 30.1429C961.025 27.0709 957.697 23.9989 954.625 20.6709C952.577 18.6229 948.993 17.8549 946.689 20.1589C944.641 22.2069 943.873 25.7909 946.177 28.0949C949.249 31.1669 952.321 34.4949 955.649 37.5669C957.697 39.6149 961.281 40.3829 963.585 38.0789C965.633 36.0309 966.401 32.4469 964.097 30.1429Z" fill="#CA93FF"/>
</g>
<g opacity="0.5">
<path d="M463.872 99.0074L454.4 89.5354C452.352 87.4874 448.512 86.7194 446.208 89.0234C443.904 91.0714 443.392 94.9114 445.696 97.2154C448.768 100.287 451.84 103.359 455.168 106.687C457.216 108.735 461.056 109.503 463.36 107.199C465.664 105.407 466.176 101.311 463.872 99.0074Z" fill="#CA93FF"/>
<path d="M529.154 58.0471C523.01 51.6471 516.61 45.5031 510.466 39.1031C505.346 33.9831 496.643 41.4071 501.763 46.5271C507.907 52.9271 514.306 59.0711 520.45 65.4711C525.826 71.1031 534.53 63.4231 529.154 58.0471Z" fill="#CA93FF"/>
<path d="M587.778 -0.320355C584.706 -4.16036 581.634 -7.74436 578.306 -11.5844C573.442 -17.2164 564.738 -9.79236 569.602 -3.90436C572.674 -0.0643597 575.746 3.51964 579.074 7.35964C583.682 12.9916 592.642 5.31164 587.778 -0.320355Z" fill="#CA93FF"/>
<path d="M448.768 22.2071C445.696 18.3671 442.368 14.7831 439.296 10.9431C434.432 5.31114 425.984 12.7351 430.592 18.3671C433.664 22.2071 436.736 25.7911 440.064 29.6311C444.928 35.5191 453.632 27.8391 448.768 22.2071Z" fill="#CA93FF"/>
<path d="M675.841 12.7355C672.769 8.89546 669.441 5.31146 666.369 1.47146C661.761 -4.16054 653.057 3.26346 657.665 8.89546L666.881 20.1595C672.001 26.0475 680.705 18.6235 675.841 12.7355Z" fill="#CA93FF"/>
<path d="M613.891 78.5275C610.051 74.6875 606.467 71.1035 602.627 67.2635C600.323 64.9595 596.995 64.4475 594.435 66.7515C592.131 68.7995 591.619 72.6395 593.923 74.9435C597.763 78.7835 601.347 82.3675 605.187 86.2075C607.491 88.5115 610.819 89.0235 613.379 86.7195C615.683 84.6715 616.195 80.8315 613.891 78.5275Z" fill="#CA93FF"/>
<path d="M550.145 131.007C545.025 126.143 540.161 121.023 535.041 116.159C529.921 111.039 521.217 118.463 526.337 123.583C531.201 128.703 536.321 133.567 541.185 138.687C546.817 143.807 555.521 136.383 550.145 131.007Z" fill="#CA93FF"/>
<path d="M687.364 80.3193C682.244 75.4553 677.38 70.3353 672.26 65.4713C667.14 60.3513 658.435 67.7753 663.555 72.8953C668.419 78.0153 673.54 82.8793 678.404 87.9993C683.78 93.3753 692.484 85.6953 687.364 80.3193Z" fill="#CA93FF"/>
<path d="M617.73 140.479C614.658 137.407 611.33 134.335 608.258 131.007C606.21 128.959 602.626 128.191 600.322 130.495C598.274 132.543 597.506 136.127 599.81 138.431C602.882 141.503 605.954 144.831 609.282 147.903C611.33 149.951 614.914 150.719 617.218 148.415C619.266 146.623 620.034 142.783 617.73 140.479Z" fill="#CA93FF"/>
<path d="M690.947 146.111C686.595 141.759 682.243 137.407 677.635 133.055C675.331 130.751 672.003 130.239 669.443 132.543C667.139 134.591 666.627 138.431 668.931 140.735C673.283 145.087 677.635 149.439 681.987 154.047C684.291 156.351 687.875 156.863 690.179 154.559C692.739 152.255 693.251 148.159 690.947 146.111Z" fill="#CA93FF"/>
</g>
<path d="M223.747 291.008C163.587 299.456 104.451 313.024 46.5953 331.456C-10.2367 349.632 -66.3007 371.904 -124.925 383.936C-226.045 404.416 -332.797 395.2 -429.565 359.616C-486.141 338.88 -539.133 308.928 -585.981 271.296C-589.309 268.736 -593.917 273.344 -590.589 275.904C-510.205 340.16 -412.925 381.12 -310.781 394.944C-260.605 401.6 -209.661 401.856 -159.741 394.688C-99.5806 386.24 -42.4927 366.272 14.5953 346.304C82.9473 322.496 152.323 303.808 224.259 293.312C226.051 293.056 225.283 290.752 223.747 291.008Z" fill="#FF597B"/>
<path d="M4.10135 154.048C-59.3867 161.216 -132.347 170.688 -174.331 224.704C-193.275 249.024 -201.211 278.976 -210.939 307.648C-222.715 342.208 -240.635 374.464 -272.891 393.152C-275.707 394.688 -273.147 398.784 -270.331 397.248C-213.243 368.832 -209.915 298.176 -184.315 247.744C-148.475 177.6 -66.0427 164.8 4.35727 156.864C5.89328 156.864 5.89334 154.048 4.10135 154.048Z" fill="#FF597B"/>
<path d="M153.604 512.448C93.4443 517.824 33.0283 522.944 -27.1317 528.32C-84.4757 533.44 -142.588 541.376 -200.188 541.888C-252.156 542.4 -307.708 532.16 -346.62 495.04C-383.228 459.968 -387.068 405.696 -415.74 365.248C-418.044 361.92 -423.42 365.248 -421.116 368.32C-391.932 409.024 -388.092 463.552 -350.716 499.136C-316.412 531.648 -268.796 544.448 -222.716 546.752C-161.788 549.568 -99.8357 539.584 -39.1637 533.696C25.0923 527.552 89.3482 521.408 153.604 515.264C155.396 515.008 155.396 512.192 153.604 512.448Z" fill="#FF597B"/>
<path d="M-6.9082 156.864C-6.9082 156.864 83.7159 130.752 78.5959 175.808C73.4759 220.864 -6.9082 156.864 -6.9082 156.864Z" fill="#FF597B"/>
<path d="M216.07 293.568C216.07 293.568 303.11 257.472 303.11 302.784C303.11 348.352 216.07 293.568 216.07 293.568Z" fill="#FF597B"/>
<path d="M-22.7804 160.193C-22.7804 160.193 -43.7724 68.2886 1.02757 75.9686C45.5716 83.3925 -22.7804 160.193 -22.7804 160.193Z" fill="#FF597B"/>
<path d="M109.573 314.048C109.573 314.048 177.157 379.584 135.685 397.76C93.9575 415.936 109.573 314.048 109.573 314.048Z" fill="#FF597B"/>
<path d="M155.91 305.088C155.91 305.088 245.766 333.76 216.582 368.32C187.398 403.136 155.91 305.088 155.91 305.088Z" fill="#FF597B"/>
<path d="M15.3659 345.024C15.3659 345.024 71.6859 424.384 28.1659 433.6C-15.6101 442.816 15.3659 345.024 15.3659 345.024Z" fill="#FF597B"/>
<path d="M-0.251711 528.063C-0.251711 528.063 55.8122 586.943 19.2042 601.023C-17.4038 615.103 -0.251711 528.063 -0.251711 528.063Z" fill="#FF597B"/>
<path d="M90.3744 519.104C90.3744 519.104 144.902 576.448 109.318 590.016C73.9904 603.84 90.3744 519.104 90.3744 519.104Z" fill="#FF597B"/>
<path d="M144.9 514.24C144.9 514.24 213.764 487.872 212.74 523.456C211.972 558.784 144.9 514.24 144.9 514.24Z" fill="#FF597B"/>
<path d="M197.123 297.152C197.123 297.152 129.539 231.616 171.011 213.44C212.739 195.52 197.123 297.152 197.123 297.152Z" fill="#FF597B"/>
<path d="M80.3888 325.312C80.3888 325.312 12.8048 259.776 54.2768 241.6C96.0048 223.68 80.3888 325.312 80.3888 325.312Z" fill="#FF597B"/>
<path d="M34.5668 523.712C34.5668 523.712 25.0948 449.472 59.9108 458.944C94.4708 468.416 34.5668 523.712 34.5668 523.712Z" fill="#FF597B"/>
<path d="M-61.4357 532.416C-61.4357 532.416 -72.4436 445.888 -31.7396 456.896C8.45242 467.904 -61.4357 532.416 -61.4357 532.416Z" fill="#FF597B"/>
<path d="M850.435 -269.632C855.043 -218.944 859.395 -168.256 863.747 -117.568C867.843 -69.1842 869.891 -20.0322 878.083 27.8398C885.507 71.1038 901.891 115.648 938.499 142.272C973.059 167.616 1018.63 162.496 1056.26 180.416C1059.33 181.952 1057.54 186.816 1054.47 185.28C1016.32 167.104 970.499 171.968 935.683 146.112C903.683 122.56 886.019 84.9278 877.315 47.0398C866.051 -3.13617 865.283 -55.8722 860.931 -107.072C856.579 -161.344 852.227 -215.36 847.875 -269.632C847.875 -270.656 850.179 -271.168 850.435 -269.632Z" fill="#FF597B"/>
<path d="M883.458 57.2792C883.458 57.2792 812.29 22.2072 809.73 60.3512C807.17 98.4952 883.458 57.2792 883.458 57.2792Z" fill="#FF597B"/>
<path d="M933.124 141.759C933.124 141.759 863.492 179.647 893.188 203.711C922.884 227.775 933.124 141.759 933.124 141.759Z" fill="#FF597B"/>
<path d="M873.477 22.2073C873.477 22.2073 946.949 18.6233 931.845 -13.3767C916.741 -45.3767 873.477 22.2073 873.477 22.2073Z" fill="#FF597B"/>
<path d="M909.315 115.903C909.315 115.903 982.788 112.319 967.684 80.3194C952.58 48.3194 909.315 115.903 909.315 115.903Z" fill="#FF597B"/>
<path d="M-167.425 780.224C-148.993 862.144 -129.025 947.648 -76.0334 1014.98C-48.8974 1049.54 -14.5933 1077.7 16.6387 1108.42C48.6387 1139.9 76.2866 1175.49 98.0466 1214.91C122.623 1258.94 139.007 1306.56 148.223 1356.22C148.991 1359.81 154.367 1358.27 153.855 1354.69C138.495 1272.26 100.863 1194.43 45.5666 1131.46C16.6386 1098.69 -17.6653 1071.04 -48.1293 1039.55C-81.1533 1005.5 -105.473 966.336 -123.393 922.304C-142.081 876.224 -153.345 827.584 -164.865 779.2C-165.121 777.664 -167.937 778.432 -167.425 780.224Z" fill="#4B7EFF"/>
<path d="M111.107 83.6479C90.6266 6.33585 68.6106 -74.3041 15.8746 -136.512C-11.2614 -168.512 -44.7975 -193.856 -75.5175 -222.016C-107.261 -250.944 -134.653 -283.712 -156.925 -320.32C-181.757 -361.536 -199.165 -406.08 -209.661 -452.928C-210.429 -456.256 -215.805 -454.72 -215.037 -451.392C-197.629 -373.568 -158.973 -300.864 -103.933 -243.008C-75.2614 -212.8 -41.7255 -187.712 -11.5175 -158.784C20.9945 -127.552 45.8265 -91.2001 64.0025 -49.9841C83.4585 -6.72012 96.0025 39.1039 108.29 84.6718C109.059 86.2078 111.363 85.4399 111.107 83.6479Z" fill="#5DD9B5"/>
<path d="M131.331 170.688C165.891 164.288 117.251 87.7441 109.571 75.9681C105.219 69.3121 105.987 74.4321 106.499 76.7361C108.803 92.8641 103.427 175.808 131.331 170.688Z" fill="#5DD9B5"/>
<path d="M27.3961 69.0561C56.3241 89.0241 76.0361 0.448122 79.1081 -13.3759C80.6441 -21.0559 77.828 -16.9599 76.292 -14.9119C66.564 -1.85587 3.84406 52.9281 27.3961 69.0561Z" fill="#5DD9B5"/>
<path d="M184.837 57.024C173.573 90.304 104.709 31.168 94.2129 21.696C88.3249 16.576 93.1889 18.112 95.4929 18.624C111.109 23.488 194.053 29.888 184.837 57.024Z" fill="#5DD9B5"/>
<path d="M795.65 642.752C816.13 720.064 838.147 800.704 890.883 862.912C918.019 894.912 951.554 920.256 982.274 948.416C1013.76 977.344 1041.41 1010.11 1063.43 1046.98C1088.26 1088.19 1105.67 1132.74 1116.16 1179.58C1116.93 1183.17 1122.31 1181.38 1121.54 1178.05C1104.13 1100.22 1065.47 1027.52 1010.43 969.664C981.762 939.456 948.226 914.368 918.018 885.696C885.506 854.464 860.674 818.112 842.498 776.896C823.042 733.632 810.498 687.808 798.21 642.24C797.698 640.448 795.138 641.216 795.65 642.752Z" fill="#5DD9B5"/>
<path d="M775.426 555.968C740.866 562.368 789.506 638.912 797.186 650.688C801.538 657.344 800.77 652.224 800.258 649.92C797.698 633.792 803.33 550.592 775.426 555.968Z" fill="#5DD9B5"/>
<path d="M879.364 657.6C850.436 637.632 830.724 726.208 827.652 740.032C826.116 747.712 828.931 743.616 830.467 741.568C840.195 728.512 902.66 673.728 879.364 657.6Z" fill="#5DD9B5"/>
<path d="M721.923 669.632C733.187 636.352 802.051 695.488 812.547 704.96C818.435 710.08 813.571 708.544 811.267 708.032C795.651 703.168 712.707 696.512 721.923 669.632Z" fill="#5DD9B5"/>
<path d="M927.492 765.888C895.236 751.808 892.676 842.432 892.42 856.768C892.164 864.704 894.468 860.096 895.492 857.792C902.66 842.944 953.604 777.408 927.492 765.888Z" fill="#5DD9B5"/>
<path d="M772.611 814.016C777.475 779.2 856.068 824.256 868.356 831.424C875.012 835.264 870.147 834.752 867.587 834.496C851.459 832.704 768.515 842.176 772.611 814.016Z" fill="#5DD9B5"/>
<path d="M864.517 924.351C863.749 889.279 948.485 921.279 961.797 926.399C968.965 929.215 964.101 929.471 961.541 929.727C945.413 930.239 865.285 952.767 864.517 924.351Z" fill="#5DD9B5"/>
<path d="M675.332 -25.9204C664.836 -22.8484 655.364 -16.9604 646.916 -10.3044C637.444 -2.88037 629.508 6.33563 619.268 12.4796C618.244 11.9676 617.476 12.7356 617.22 13.7596C616.708 14.0156 616.452 14.2716 615.94 14.5276C613.892 15.5516 615.428 18.3676 617.22 17.5996C617.988 17.3436 618.756 16.8316 619.524 16.3196C641.796 23.9996 665.604 22.7196 688.644 17.5996C701.444 14.7836 732.932 8.38363 724.996 -11.8404C717.828 -30.2724 690.436 -30.5284 675.332 -25.9204Z" fill="#FFE10A"/>
<path d="M658.435 122.048C663.555 112.576 666.115 101.824 667.395 91.072C668.675 79.04 667.907 67.008 670.979 55.488C672.003 54.976 672.003 53.952 671.491 53.184C671.747 52.672 671.747 52.416 671.747 51.904C672.515 49.856 669.187 48.832 668.675 50.88C668.419 51.648 668.163 52.416 667.907 53.44C646.659 63.936 630.787 81.6 618.243 101.312C611.075 112.576 593.411 139.2 613.379 147.904C631.555 155.072 651.011 135.872 658.435 122.048Z" fill="#FFE10A"/>
<path d="M563.461 65.9837C567.301 53.1837 568.068 39.6157 566.788 26.5597C565.508 11.9677 561.669 -2.36831 562.693 -17.2163C563.717 -17.9843 563.716 -19.5203 562.948 -20.2883C562.948 -20.8003 562.949 -21.3123 563.205 -21.8243C563.461 -24.3843 559.62 -25.1523 559.108 -22.3363C558.852 -21.3123 558.853 -20.2883 558.853 -19.2643C535.813 -1.60032 520.964 23.4877 510.468 50.1117C504.58 65.2157 489.733 101.312 515.845 107.2C538.885 112.064 557.829 84.4157 563.461 65.9837Z" fill="#FFE10A"/>
<path d="M731.651 127.168C713.219 85.9519 678.659 56.5119 642.307 31.4239C599.811 1.98389 556.291 -24.6401 518.659 -60.7361C437.251 -139.072 382.979 -239.936 334.595 -340.8C304.131 -404.032 275.459 -468.032 242.179 -529.728C240.643 -532.8 236.035 -529.984 237.571 -526.912C295.171 -420.16 338.947 -306.24 401.923 -202.56C429.059 -157.76 459.779 -115.008 495.619 -76.8641C530.179 -40.2561 569.603 -11.0721 611.587 16.0639C657.411 45.7599 705.795 76.9919 729.091 128.448C730.115 130.24 732.419 128.96 731.651 127.168Z" fill="#2B2354"/>
<path d="M779.268 116.672C771.588 96.9601 755.973 83.1361 737.541 73.6641C716.549 62.6561 691.973 52.4161 668.421 50.1121C665.605 49.8561 665.605 54.4641 668.421 54.7201C689.925 56.5121 712.452 65.7281 731.908 74.6881C751.364 83.6481 768.773 96.9601 776.965 117.44C777.733 118.208 779.78 117.952 779.268 116.672Z" fill="#2B2354"/>
<path d="M774.915 38.8482C765.443 53.6962 752.387 64.4482 736.771 71.8722C734.211 73.1522 736.515 76.7362 739.075 75.7122C755.203 68.0322 768.003 55.4882 776.963 39.8722C777.219 38.8482 775.683 37.8242 774.915 38.8482Z" fill="#2B2354"/>
<path d="M453.124 58.3039C435.716 31.1679 442.628 -1.85609 460.804 -26.6881C472.58 -42.8161 497.924 -56.3841 497.668 -78.4001C497.668 -80.9601 493.572 -80.9601 493.572 -78.4001C493.828 -61.7601 477.444 -51.5201 467.46 -40.2561C459.268 -31.2961 452.1 -21.0561 447.236 -9.79207C437.508 12.7359 437.764 38.5919 451.588 59.3279C452.1 60.3519 453.636 59.3279 453.124 58.3039Z" fill="#2B2354"/>
<path d="M498.946 30.9122C489.474 11.4562 470.53 -0.831815 452.098 -11.0718C449.794 -12.3518 447.49 -8.76783 450.05 -7.48783C468.482 2.75217 487.17 12.4802 496.898 32.1922C497.41 33.4722 499.714 32.1922 498.946 30.9122Z" fill="#2B2354"/>
<path d="M794.115 123.584C787.715 141.248 760.067 131.264 766.467 113.6C772.867 95.936 800.515 105.92 794.115 123.584Z" fill="#FFE10A"/>
<path d="M788.739 41.9198C783.363 56.7678 760.578 48.3198 765.954 33.4718C771.33 18.8798 794.115 27.0718 788.739 41.9198Z" fill="#FFE10A"/>
<path d="M740.612 135.104C735.748 148.416 715.268 140.992 720.132 127.68C724.996 114.368 745.476 121.792 740.612 135.104Z" fill="#FFE10A"/>
<path d="M507.652 39.1039C503.812 49.5999 487.428 43.7119 491.268 33.2159C495.108 22.4639 511.492 28.3519 507.652 39.1039Z" fill="#FFE10A"/>
<path d="M458.243 61.6318C455.939 68.2878 445.443 64.4478 448.003 57.7918C450.307 51.3919 460.547 54.9759 458.243 61.6318Z" fill="#FFE10A"/>
<path d="M473.348 31.68C469.764 41.408 454.916 35.776 458.5 26.304C461.828 16.576 476.676 22.208 473.348 31.68Z" fill="#FFE10A"/>
<path d="M432.389 43.9676C429.317 52.1596 416.517 47.5516 419.589 39.3596C422.405 30.9116 435.205 35.5196 432.389 43.9676Z" fill="#FFE10A"/>
<path d="M701.7 112.575C698.116 122.559 682.5 116.927 686.084 106.943C689.668 96.9595 705.284 102.591 701.7 112.575Z" fill="#FFE10A"/>
<path d="M782.594 79.5517C779.01 89.2797 764.162 83.6477 767.746 74.1757C771.074 64.4477 786.178 69.8237 782.594 79.5517Z" fill="#FFE10A"/>
<path d="M739.075 42.688C735.235 53.44 718.339 47.296 722.435 36.544C726.275 25.792 742.915 31.936 739.075 42.688Z" fill="#FFE10A"/>
<path d="M527.619 79.2958C539.139 67.5198 541.955 51.3918 544.515 35.7758C547.843 15.2958 552.963 -4.16016 562.435 -22.8482C563.203 -24.3842 560.899 -25.6642 560.131 -24.1282C551.683 -7.23216 546.051 10.6878 542.979 29.3758C540.163 46.2718 538.371 64.7038 525.827 77.5038C524.803 78.5278 526.595 80.3198 527.619 79.2958Z" fill="#2B2354"/>
<path d="M630.273 120C645.633 99.0077 658.945 76.7357 670.721 53.4397C671.489 51.9037 669.185 50.6237 668.417 52.1597C656.641 75.4557 643.073 97.4717 627.969 118.72C627.201 120 629.505 121.28 630.273 120Z" fill="#2B2354"/>
<path d="M704.26 -8.76748C689.156 -10.0475 675.588 -1.85547 661.764 3.26453C645.892 9.15253 629.252 12.9925 612.356 15.0405C610.82 15.2965 610.82 17.8565 612.356 17.6005C627.972 15.8085 643.076 12.4805 657.924 7.36053C672.772 2.24052 687.876 -7.48748 704.26 -6.20748C705.796 -6.20748 705.796 -8.76748 704.26 -8.76748Z" fill="#2B2354"/>
<path d="M860.929 253.888C853.249 252.608 848.641 260.544 846.849 267.968C842.497 253.888 839.937 239.552 835.073 225.728C830.977 214.208 824.577 199.36 813.569 192.704C805.121 187.584 797.185 191.936 794.113 200.64C790.785 209.6 791.297 220.096 793.089 229.824C787.201 219.84 781.057 210.112 773.633 201.408C769.537 196.288 767.233 190.912 762.113 186.816C759.297 184.512 756.225 181.696 752.385 182.976C742.145 186.304 747.265 203.2 749.569 209.088C753.153 218.048 758.017 226.24 763.137 234.176C756.993 227.776 750.849 221.632 742.145 218.816C731.649 215.488 724.737 220.608 728.833 231.36C738.049 256.448 754.177 278.72 774.401 296.384C766.977 293.312 758.785 291.776 754.945 298.176C752.385 302.528 755.457 307.904 757.505 311.744C761.601 319.424 766.977 326.08 772.865 332.224C798.721 359.104 833.793 377.28 866.305 394.688C866.305 396.992 869.889 396.736 869.889 394.432C870.145 374.72 871.169 354.752 872.961 335.04C874.497 317.888 879.105 299.968 877.825 282.56C877.057 273.344 872.449 255.936 860.929 253.888Z" fill="#2B2354"/>
<path d="M863.487 271.808C873.215 300.736 850.431 326.848 847.359 354.752C837.631 335.552 833.023 313.792 822.527 294.848C821.759 293.568 820.991 292.288 820.479 291.008V290.752C820.991 284.096 825.343 278.72 826.623 272.32C827.391 268.48 827.647 264.64 827.391 260.8C826.623 248.768 821.247 237.504 816.127 226.752C815.871 226.24 814.847 226.496 815.103 227.264C820.223 238.272 825.343 249.792 825.599 262.336C825.855 267.968 824.831 273.6 822.527 278.72C820.991 282.048 819.455 284.864 818.687 288.192C804.863 265.408 787.455 244.928 774.655 221.632C774.399 221.376 773.887 221.632 774.143 221.888C786.943 246.208 804.607 267.456 818.431 291.264C799.231 285.888 782.079 276.16 767.743 262.336C767.487 262.08 766.975 262.336 767.231 262.848C781.823 277.184 799.231 287.68 818.943 293.312C819.199 293.312 819.199 293.312 819.455 293.312C820.479 294.848 821.247 296.64 822.271 298.176C828.927 310.72 833.023 324.8 837.887 338.368C827.903 335.04 817.663 336.064 807.679 332.224C797.183 328.128 787.711 321.472 778.495 315.072C777.983 314.816 777.727 315.328 777.983 315.84C786.431 321.984 795.135 328.384 804.863 332.736C815.359 337.344 826.623 336.576 837.375 340.416C837.887 340.672 838.399 340.416 838.399 339.904C843.007 352.192 848.383 364.224 857.343 373.952C858.367 374.976 860.159 373.696 859.135 372.416C855.295 368.064 852.223 363.2 849.407 358.336V358.08C851.199 328.64 876.031 300.992 863.999 271.04C863.999 271.04 863.231 271.296 863.487 271.808Z" fill="#F4CC37"/>
<path d="M243.203 875.968C249.091 968.128 311.299 1039.81 367.619 1107.39C428.291 1180.35 476.675 1259.97 505.091 1351.1C520.707 1400.77 530.179 1452.22 533.507 1504.19C533.763 1507.78 539.139 1507.78 538.883 1504.19C532.739 1416.64 509.699 1330.88 470.531 1252.29C450.819 1212.86 427.267 1175.49 400.131 1140.67C369.667 1101.5 335.619 1065.15 306.691 1024.7C275.203 980.672 250.115 930.752 246.275 875.968C246.019 874.176 243.203 874.176 243.203 875.968Z" fill="#FFAF0A"/>
<path d="M477.698 611.52C484.098 657.344 494.338 702.4 508.418 746.432C521.986 788.928 538.626 830.912 548.098 874.688C565.25 953.792 558.338 1037.25 530.69 1113.02C514.818 1156.8 491.778 1197.76 462.338 1234.37C460.29 1236.93 463.874 1240.77 466.178 1238.21C515.842 1176.26 547.329 1101.25 557.825 1022.66C563.201 983.232 562.946 943.296 557.314 903.872C550.658 857.792 535.042 814.016 519.682 770.24C501.506 718.272 487.426 665.536 479.49 611.008C479.49 609.472 477.698 610.24 477.698 611.52Z" fill="#FFAF0A"/>
<path d="M372.482 780.479C377.858 829.119 385.026 885.183 426.498 917.695C444.93 932.287 467.97 938.431 489.73 945.855C516.61 954.815 541.698 968.639 556.29 993.727C557.57 996.031 560.898 993.983 559.874 991.679C538.114 948.415 485.122 945.343 446.466 926.399C391.17 899.263 381.186 835.519 374.786 780.479C374.786 778.943 372.226 778.943 372.482 780.479Z" fill="#FFAF0A"/>
<path d="M647.94 665.28C652.036 710.848 655.876 756.416 659.972 801.984C663.812 846.272 669.956 890.816 670.724 935.104C671.236 975.808 663.812 1019.58 634.372 1050.05C607.492 1077.95 565.764 1081.02 534.788 1103.04C532.228 1104.83 534.788 1109.44 537.348 1107.39C568.58 1085.12 610.564 1082.05 637.7 1053.63C663.044 1027.01 673.028 989.888 674.564 954.048C676.612 906.944 668.932 858.816 664.324 811.968C659.716 763.072 654.852 713.92 650.244 665.024C650.244 664 647.94 663.744 647.94 665.28Z" fill="#FFAF0A"/>
<path d="M387.842 856.256C387.842 856.256 386.817 783.808 419.073 796.608C451.585 809.408 387.842 856.256 387.842 856.256Z" fill="#FFAF0A"/>
<path d="M374.786 788.928C374.786 788.928 354.818 719.296 389.378 723.136C423.938 726.976 374.786 788.928 374.786 788.928Z" fill="#FFAF0A"/>
<path d="M480.002 617.408C480.002 617.408 452.354 550.336 487.17 550.336C521.986 550.336 480.002 617.408 480.002 617.408Z" fill="#FFAF0A"/>
<path d="M377.346 801.216C377.346 801.216 306.69 817.344 312.578 783.04C318.21 748.48 377.346 801.216 377.346 801.216Z" fill="#FFAF0A"/>
<path d="M444.675 927.168C444.675 927.168 443.65 854.72 475.906 867.52C508.162 880.32 444.675 927.168 444.675 927.168Z" fill="#FFAF0A"/>
<path d="M495.62 946.624C495.62 946.624 494.596 874.176 526.852 886.976C559.108 899.776 495.62 946.624 495.62 946.624Z" fill="#FFAF0A"/>
<path d="M495.617 699.328C495.617 699.328 546.049 647.36 559.873 679.36C573.697 711.36 495.617 699.328 495.617 699.328Z" fill="#FFAF0A"/>
<path d="M488.706 663.744C488.706 663.744 510.722 594.624 537.346 617.152C563.97 639.424 488.706 663.744 488.706 663.744Z" fill="#FFAF0A"/>
<path d="M519.425 771.776C519.425 771.776 580.609 728.512 587.521 762.048C594.433 795.584 519.425 771.776 519.425 771.776Z" fill="#FFAF0A"/>
<path d="M552.45 883.136C552.45 883.136 587.266 819.648 609.282 846.784C631.042 873.92 552.45 883.136 552.45 883.136Z" fill="#FFAF0A"/>
<path d="M660.225 783.552C660.225 783.552 705.537 740.544 716.289 768.448C727.041 796.608 660.225 783.552 660.225 783.552Z" fill="#FFAF0A"/>
<path d="M653.313 713.92C653.313 713.92 697.346 671.936 707.842 699.328C718.594 726.72 653.313 713.92 653.313 713.92Z" fill="#FFAF0A"/>
<path d="M649.475 672.192C649.475 672.192 629.252 619.2 656.644 619.968C683.78 620.48 649.475 672.192 649.475 672.192Z" fill="#FFAF0A"/>
<path d="M667.138 870.08C667.138 870.08 720.898 821.44 732.674 854.208C744.45 886.976 667.138 870.08 667.138 870.08Z" fill="#FFAF0A"/>
<path d="M670.724 964.8C670.724 964.8 729.092 922.048 737.54 955.84C745.988 989.632 670.724 964.8 670.724 964.8Z" fill="#FFAF0A"/>
<path d="M403.46 893.12C403.46 893.12 353.028 945.088 339.204 913.088C325.38 881.344 403.46 893.12 403.46 893.12Z" fill="#FFAF0A"/>
<path d="M482.562 631.744C482.562 631.744 432.13 683.712 418.306 651.712C404.482 619.968 482.562 631.744 482.562 631.744Z" fill="#FFAF0A"/>
<path d="M504.322 721.6C504.322 721.6 453.889 773.568 440.065 741.568C426.241 709.568 504.322 721.6 504.322 721.6Z" fill="#FFAF0A"/>
<path d="M656.898 756.928C656.898 756.928 599.81 764.096 607.234 737.472C614.402 710.848 656.898 756.928 656.898 756.928Z" fill="#FFAF0A"/>
<path d="M663.554 830.912C663.554 830.912 596.994 839.36 605.442 808.128C613.89 776.896 663.554 830.912 663.554 830.912Z" fill="#FFAF0A"/>
<path d="M674.305 931.776C674.305 931.776 607.745 940.224 616.193 908.992C624.641 877.76 674.305 931.776 674.305 931.776Z" fill="#FFAF0A"/>
<path d="M656.898 1021.63C656.898 1021.63 590.338 1030.08 598.786 998.848C607.234 967.872 656.898 1021.63 656.898 1021.63Z" fill="#FFAF0A"/>
<path d="M528.643 803.264C528.643 803.264 478.211 855.232 464.387 823.232C450.563 791.232 528.643 803.264 528.643 803.264Z" fill="#FFAF0A"/>
<path d="M255.746 932.287C255.746 932.287 187.138 955.328 189.442 920.512C191.746 885.696 255.746 932.287 255.746 932.287Z" fill="#FFAF0A"/>
<path d="M526.082 958.144C526.082 958.144 530.69 1030.59 497.666 1019.33C464.898 1008.06 526.082 958.144 526.082 958.144Z" fill="#FFAF0A"/>
<path d="M471.04 937.152C471.04 937.152 475.648 1009.6 442.624 998.336C409.6 987.072 471.04 937.152 471.04 937.152Z" fill="#FFAF0A"/>
<path d="M272.644 975.808C272.644 975.808 275.715 903.36 307.459 918.208C338.947 932.8 272.644 975.808 272.644 975.808Z" fill="#FFAF0A"/>
<path d="M246.019 889.792C246.019 889.792 218.883 822.464 253.699 822.976C288.515 822.976 246.019 889.792 246.019 889.792Z" fill="#FFAF0A"/>
<path d="M297.476 536.768C297.476 536.768 231.172 556.736 214.788 396.48C214.788 396.48 309.764 443.584 297.476 536.768Z" fill="#FFE10A"/>
<path d="M296.964 535.488C272.9 491.968 246.532 449.984 223.492 405.952C222.468 404.16 219.652 405.696 220.676 407.744C243.716 451.52 268.548 494.784 295.684 536.256C296.196 537.024 297.476 536.256 296.964 535.488Z" fill="#2B2354"/>
<path d="M864.772 1064.13C864.772 1064.13 798.468 1084.1 782.084 923.84C782.084 923.84 876.804 970.944 864.772 1064.13Z" fill="#FFE10A"/>
<path d="M864.26 1062.85C840.196 1019.33 813.828 977.344 790.788 933.312C789.764 931.52 786.948 933.056 787.972 935.104C811.012 978.88 835.844 1022.14 862.98 1063.62C863.492 1064.64 864.772 1063.87 864.26 1062.85Z" fill="#2B2354"/>
<path d="M1004.8 583.103C1004.8 583.103 951.043 649.919 821.763 497.856C821.763 497.856 951.555 479.423 1004.8 583.103Z" fill="#FFE10A"/>
<path d="M1003.27 582.592C947.972 555.456 891.652 530.88 837.124 501.952C835.332 500.928 833.54 503.744 835.332 504.768C889.86 533.44 945.668 560.32 1002.5 583.872C1003.52 584.128 1004.04 582.848 1003.27 582.592Z" fill="#2B2354"/>
<path d="M13.3145 752.575C13.3145 752.575 180.994 618.175 146.434 708.287C146.434 708.287 274.178 675.775 279.554 702.911C284.674 730.047 156.419 748.479 156.419 748.479C156.419 748.479 193.538 757.439 187.394 776.639C181.25 795.583 13.3145 752.575 13.3145 752.575Z" fill="#2B2354"/>
<path d="M31.7461 749.247C95.7461 734.399 158.21 714.175 224.002 710.079C226.05 710.079 226.05 707.007 224.002 707.007C157.954 710.079 94.978 732.351 31.49 748.223C30.722 748.223 30.9781 749.247 31.7461 749.247Z" fill="#FFE10A"/>
<path d="M-39.166 756.16C-39.166 756.16 145.41 859.072 50.6899 861.12C50.6899 861.12 127.746 965.568 104.962 980.416C82.1779 995.264 17.666 884.928 17.666 884.928C17.666 884.928 23.298 922.048 3.58601 923.584C-15.87 925.12 -39.166 756.16 -39.166 756.16Z" fill="#5DD9B5"/>
<path d="M-29.1819 771.52C8.19414 824.256 49.922 873.919 78.082 932.543C78.85 934.335 81.666 932.799 80.642 931.007C53.506 872.127 9.73011 822.975 -28.4139 771.007C-28.6699 770.495 -29.6939 771.008 -29.1819 771.52Z" fill="#2B2354"/>
<path d="M573.442 373.696C573.442 373.696 555.01 457.408 371.458 378.56C371.458 378.56 479.746 304.32 573.442 373.696Z" fill="#4B7EFF"/>
<path d="M534.274 374.464C496.13 374.208 457.986 376 419.842 375.232C417.794 375.232 417.794 378.56 419.842 378.56C457.986 379.328 496.13 379.072 534.274 376C535.298 376 535.298 374.464 534.274 374.464Z" fill="#2B2354"/>
<path d="M667.908 430.271C667.908 430.271 706.052 507.072 513.796 560.832C513.796 560.832 551.428 435.135 667.908 430.271Z" fill="#4B7EFF"/>
<path d="M637.954 455.616C608.258 479.168 579.842 504.512 549.634 527.808C547.842 529.088 549.634 531.904 551.426 530.624C581.634 507.328 611.33 483.008 639.234 456.64C639.746 456.128 638.722 455.104 637.954 455.616Z" fill="#2B2354"/>
<path d="M332.545 160.96C332.545 160.96 322.561 206.016 224.257 163.52C224.257 163.52 282.369 123.84 332.545 160.96Z" fill="#4B7EFF"/>
<path d="M311.555 160.96C291.075 160.192 270.595 161.472 250.115 160.96C248.067 160.96 248.067 164.288 250.115 164.288C270.595 164.544 291.075 164.544 311.555 162.496C312.579 162.496 312.579 161.216 311.555 160.96Z" fill="#2B2354"/>
<path d="M332.545 160.959C332.545 160.959 378.625 162.751 362.753 57.0234C362.753 57.0234 309.505 102.847 332.545 160.959Z" fill="#4B7EFF"/>
<path d="M339.459 140.991C346.627 121.791 352.003 102.079 356.867 82.1114C357.379 80.0634 354.051 79.0394 353.539 81.3434C348.675 101.311 342.531 120.767 337.923 140.735C337.923 141.759 339.203 142.015 339.459 140.991Z" fill="#2B2354"/>
<path d="M448.002 271.551C448.002 271.551 433.922 335.039 295.17 275.135C295.17 275.135 377.09 219.071 448.002 271.551Z" fill="#4B7EFF"/>
<path d="M418.305 271.808C389.377 271.296 360.705 272.832 331.777 272.064C329.729 272.064 329.729 275.392 331.777 275.392C360.705 275.904 389.633 275.904 418.305 273.344C419.329 273.344 419.329 272.064 418.305 271.808Z" fill="#2B2354"/>
<path d="M558.85 380.096C558.85 380.096 644.354 372.16 588.802 180.416C588.802 180.416 501.762 278.464 558.85 380.096Z" fill="#4B7EFF"/>
<path d="M566.018 341.696C573.698 304.32 578.818 266.176 582.914 228.288C583.17 226.24 579.842 226.24 579.586 228.288C575.746 266.176 569.09 303.808 564.738 341.44C564.482 342.464 565.762 342.464 566.018 341.696Z" fill="#2B2354"/>
<path d="M663.81 441.28C663.81 441.28 749.314 433.344 693.762 241.6C694.018 241.6 606.722 339.904 663.81 441.28Z" fill="#4B7EFF"/>
<path d="M671.232 402.88C678.912 365.504 684.032 327.36 688.128 289.472C688.384 287.424 685.057 287.424 684.801 289.472C680.961 327.36 674.304 364.992 669.952 402.624C669.44 403.648 670.976 403.904 671.232 402.88Z" fill="#2B2354"/>
<path d="M443.65 275.647C443.65 275.647 520.194 236.735 397.826 79.0391C397.826 79.0391 353.026 202.431 443.65 275.647Z" fill="#4B7EFF"/>
<path d="M436.225 237.247C429.569 199.615 420.353 162.495 410.113 125.887C409.601 123.839 406.273 124.607 406.785 126.655C417.281 163.263 424.961 200.639 434.689 237.503C434.945 238.527 436.225 238.271 436.225 237.247Z" fill="#2B2354"/>
<path d="M277.506 94.1436C371.97 218.304 488.706 324.544 620.802 407.232C658.69 431.04 697.858 452.544 738.05 472.256C741.378 473.792 744.194 468.928 740.866 467.392C600.322 399.808 472.578 305.6 365.314 192.704C335.106 160.704 306.434 127.424 279.554 92.6077C278.786 91.0717 276.482 92.8636 277.506 94.1436Z" fill="#2B2354"/>
<path d="M293.891 113.344C293.891 113.344 341.508 68.2876 217.86 -20.5444C217.86 -20.5444 211.971 79.5516 293.891 113.344Z" fill="#4B7EFF"/>
<path d="M280.325 86.7193C267.525 60.6073 252.677 35.5193 237.317 10.9433C236.293 9.15133 233.221 10.6873 234.501 12.7353C250.117 37.3113 263.685 62.9113 279.301 87.7433C279.557 88.5113 280.837 87.7433 280.325 86.7193Z" fill="#2B2354"/>
<path d="M43.7783 618.432C43.7783 618.432 23.5543 632 -5.88574 609.728C-5.88574 609.472 29.4423 601.536 43.7783 618.432Z" fill="#B772FF"/>
<path d="M43.7775 618.432C43.7775 618.432 20.9934 627.392 23.0414 664.512C23.0414 664.256 49.6655 639.424 43.7775 618.432Z" fill="#B772FF"/>
<path d="M117.759 604.864C117.759 604.864 96.2554 616.384 69.3754 590.784C69.1194 590.784 105.471 586.688 117.759 604.864Z" fill="#B772FF"/>
<path d="M117.76 604.864C117.76 604.864 94.208 611.52 92.416 648.384C92.416 648.384 121.344 626.368 117.76 604.864Z" fill="#B772FF"/>
<path d="M210.18 607.424C210.18 607.424 186.628 613.824 165.892 583.36C165.892 583.104 201.988 586.944 210.18 607.424Z" fill="#B772FF"/>
<path d="M210.18 607.424C210.18 607.424 185.86 608.704 175.876 644.544C175.876 644.288 208.9 629.184 210.18 607.424Z" fill="#B772FF"/>
<path d="M285.7 624.32C285.7 624.32 261.38 626.112 247.044 591.808C247.044 591.808 281.86 602.816 285.7 624.32Z" fill="#B772FF"/>
<path d="M285.699 624.32C285.699 624.32 261.635 620.736 244.739 653.76C244.739 653.76 280.067 645.568 285.699 624.32Z" fill="#B772FF"/>
<path d="M367.621 438.72C367.621 438.72 365.828 414.4 400.132 400.064C400.132 400.32 389.125 435.136 367.621 438.72Z" fill="#B772FF"/>
<path d="M367.619 438.72C367.619 438.72 371.203 414.656 338.179 397.76C338.179 398.016 346.371 433.344 367.619 438.72Z" fill="#B772FF"/>
<path d="M369.924 505.536C369.924 505.536 368.132 481.216 402.436 466.88C402.436 466.88 391.684 501.696 369.924 505.536Z" fill="#B772FF"/>
<path d="M369.922 505.536C369.922 505.536 373.506 481.472 340.482 464.576C340.482 464.576 348.674 500.16 369.922 505.536Z" fill="#B772FF"/>
<path d="M362.245 577.728C362.245 577.728 360.452 553.408 394.756 539.072C394.756 539.072 383.749 573.888 362.245 577.728Z" fill="#B772FF"/>
<path d="M362.243 577.728C362.243 577.728 365.827 553.664 332.803 536.768C332.803 536.768 340.995 572.096 362.243 577.728Z" fill="#B772FF"/>
<path d="M353.027 622.016C353.027 622.016 351.235 597.696 385.539 583.36C385.539 583.36 374.531 618.176 353.027 622.016Z" fill="#B772FF"/>
<path d="M353.025 622.016C353.025 622.016 356.609 597.952 323.585 581.056C323.585 581.056 331.777 616.384 353.025 622.016Z" fill="#B772FF"/>
<path d="M323.331 701.376C323.331 701.376 324.867 677.056 360.707 667.584C360.707 667.328 345.347 700.352 323.331 701.376Z" fill="#B772FF"/>
<path d="M323.33 701.376C323.33 701.376 329.986 677.824 299.522 656.832C299.778 656.832 303.106 692.928 323.33 701.376Z" fill="#B772FF"/>
<path d="M366.847 433.344C371.455 490.688 367.103 548.288 353.791 604.096C347.391 630.464 339.199 656.576 328.959 681.664C318.207 708.288 305.407 734.144 283.647 753.344C281.087 755.648 284.927 759.232 287.231 756.928C306.431 739.52 318.719 716.992 328.703 693.44C340.223 666.304 349.183 638.144 356.095 609.472C369.919 551.872 373.759 492.224 368.895 433.088C368.895 432.064 366.847 432.064 366.847 433.344Z" fill="#7D5DE3"/>
<path d="M-117.247 699.072C-54.0151 648.128 23.5529 616.64 104.193 607.936C143.105 603.84 182.529 604.864 220.929 611.264C263.169 618.432 302.849 636.096 345.601 639.936C348.929 640.192 348.929 635.072 345.601 634.816C299.265 630.72 256.001 611.52 209.921 605.12C172.033 600 133.377 600 95.4888 605.12C17.1528 615.616 -57.5992 647.36 -119.039 697.024C-120.319 698.304 -118.527 700.096 -117.247 699.072Z" fill="#7D5DE3"/>
<path d="M394.497 520.384C392.193 518.592 389.633 518.848 387.073 519.872C386.817 519.872 386.561 520.128 386.305 520.128C384.513 520.896 383.489 522.944 383.233 524.736C382.977 526.784 383.489 528.576 385.025 529.856C385.281 530.112 385.281 530.112 385.537 530.368C389.377 534.208 396.033 531.904 396.801 526.528C397.569 524.224 396.545 521.664 394.497 520.384Z" fill="#7D5DE3"/>
<path d="M356.097 509.888C356.097 510.144 356.097 510.4 356.097 510.656C356.353 508.864 356.353 507.328 355.329 505.536C354.561 504 352.769 502.72 351.233 502.464C347.905 501.696 343.809 503.488 343.041 507.328C343.041 507.584 342.785 507.84 342.785 508.352C341.505 512.192 344.577 516.288 348.417 516.8C352.769 517.056 356.097 513.984 356.097 509.888Z" fill="#7D5DE3"/>
<path d="M230.657 591.296C231.169 587.968 229.633 584.128 226.049 583.104C222.721 582.336 218.881 584.128 217.857 587.712C217.857 587.968 217.601 588.224 217.601 588.736C216.833 592.064 218.625 596.16 222.209 596.928C225.537 597.696 229.633 595.904 230.401 592.32C230.657 591.808 230.657 591.552 230.657 591.296Z" fill="#7D5DE3"/>
<path d="M212.738 646.336C204.802 644.8 201.474 656.832 209.41 658.624C217.346 659.904 220.674 647.872 212.738 646.336Z" fill="#7D5DE3"/>
<path d="M63.7462 651.2C56.0662 649.664 52.7382 661.44 60.6742 662.976C68.3542 664.512 71.4262 652.736 63.7462 651.2Z" fill="#7D5DE3"/>
<path d="M150.53 928.447C144.386 928.447 143.618 938.175 149.762 938.175C156.162 938.175 156.93 928.447 150.53 928.447Z" fill="#5DD9B5"/>
<path d="M155.396 859.072C149.252 859.072 148.484 868.8 154.628 868.8C161.028 868.8 161.54 859.072 155.396 859.072Z" fill="#5DD9B5"/>
<path d="M287.492 1.72803C281.348 1.72803 280.836 11.2 286.724 11.2C292.868 11.2 293.38 1.72803 287.492 1.72803Z" fill="#2B2354"/>
<path d="M309.252 19.6479C308.74 19.6479 307.972 19.6479 307.46 19.6479C304.9 19.6479 302.34 21.4399 302.34 24.2559C302.34 26.8159 304.132 29.3759 306.948 29.3759C307.46 29.3759 308.228 29.3759 308.74 29.3759C311.3 29.3759 313.86 27.5839 313.86 24.7679C313.604 22.4639 311.812 19.6479 309.252 19.6479Z" fill="#2B2354"/>
<path d="M312.836 -7.23193C306.948 -7.23193 306.436 1.72807 312.324 1.72807C317.956 1.98407 318.724 -7.23193 312.836 -7.23193Z" fill="#2B2354"/>
<path d="M460.293 475.583C454.149 475.583 453.638 485.056 459.526 485.056C465.67 485.056 466.181 475.583 460.293 475.583Z" fill="#2B2354"/>
<path d="M482.053 493.504C481.541 493.504 480.774 493.504 480.262 493.504C477.702 493.504 475.142 495.296 475.142 498.112C475.142 500.672 476.933 503.232 479.749 503.232C480.261 503.232 481.03 503.232 481.542 503.232C484.102 503.232 486.662 501.44 486.662 498.624C486.406 496.32 484.613 493.504 482.053 493.504Z" fill="#2B2354"/>
<path d="M485.637 466.88C479.749 466.88 479.237 475.84 485.125 475.84C490.757 475.84 491.525 466.88 485.637 466.88Z" fill="#2B2354"/>
<path d="M104.193 813.503C98.0494 813.503 97.5374 822.975 103.425 822.975C109.569 822.719 110.337 813.503 104.193 813.503Z" fill="#2B2354"/>
<path d="M125.954 831.423C125.442 831.423 124.674 831.423 124.162 831.423C121.602 831.423 119.042 833.215 119.042 836.031C119.042 838.591 120.833 841.151 123.649 841.151C124.161 841.151 124.93 841.151 125.442 841.151C128.002 841.151 130.562 839.359 130.562 836.543C130.562 833.983 128.514 831.423 125.954 831.423Z" fill="#2B2354"/>
<path d="M129.537 804.543C123.649 804.543 123.137 813.503 129.025 813.503C134.657 813.503 135.425 804.543 129.537 804.543Z" fill="#2B2354"/>
<path d="M501.766 126.655C495.622 126.655 495.11 136.127 500.998 136.127C507.142 136.127 507.91 126.655 501.766 126.655Z" fill="#2B2354"/>
<path d="M523.526 144.575C523.014 144.575 522.246 144.575 521.734 144.575C519.174 144.575 516.614 146.367 516.614 149.183C516.614 151.743 518.406 154.303 521.222 154.303C521.734 154.303 522.502 154.303 523.014 154.303C525.574 154.303 528.134 152.511 528.134 149.695C528.134 147.391 526.342 144.575 523.526 144.575Z" fill="#2B2354"/>
<path d="M527.109 117.695C521.221 117.695 520.71 126.655 526.598 126.655C532.23 126.911 532.997 117.695 527.109 117.695Z" fill="#2B2354"/>
</g>
</g>
<defs>
<clipPath id="clip0_44_6789">
<rect width="960" height="968" fill="white"/>
</clipPath>
</defs>
</svg>
