<svg width="78" height="17" viewBox="0 0 78 17" fill="none" xmlns="http://www.w3.org/2000/svg">
<path d="M8.378 11.038V13H0.494V0.526H2.762V11.038H8.378ZM18.3395 8.284C18.3395 9.028 18.2315 9.706 18.0155 10.318C17.7995 10.93 17.4935 11.452 17.0975 11.884C16.7015 12.316 16.2215 12.652 15.6575 12.892C15.1055 13.132 14.4935 13.252 13.8215 13.252C13.1495 13.252 12.5375 13.132 11.9855 12.892C11.4335 12.652 10.9595 12.316 10.5635 11.884C10.1675 11.452 9.85545 10.93 9.62745 10.318C9.41145 9.706 9.30345 9.028 9.30345 8.284C9.30345 7.54 9.41145 6.868 9.62745 6.268C9.85545 5.656 10.1675 5.134 10.5635 4.702C10.9715 4.27 11.4515 3.94 12.0035 3.712C12.5555 3.472 13.1615 3.352 13.8215 3.352C14.4815 3.352 15.0875 3.472 15.6395 3.712C16.2035 3.94 16.6835 4.27 17.0795 4.702C17.4755 5.134 17.7815 5.656 17.9975 6.268C18.2255 6.868 18.3395 7.54 18.3395 8.284ZM16.1075 8.284C16.1075 7.348 15.9035 6.61 15.4955 6.07C15.0995 5.518 14.5415 5.242 13.8215 5.242C13.1015 5.242 12.5375 5.518 12.1295 6.07C11.7335 6.61 11.5355 7.348 11.5355 8.284C11.5355 9.232 11.7335 9.982 12.1295 10.534C12.5375 11.086 13.1015 11.362 13.8215 11.362C14.5415 11.362 15.0995 11.086 15.4955 10.534C15.9035 9.982 16.1075 9.232 16.1075 8.284ZM22.2933 8.05C22.2933 8.974 22.4913 9.652 22.8873 10.084C23.2953 10.504 23.8173 10.714 24.4533 10.714C24.8013 10.714 25.1253 10.666 25.4253 10.57C25.7373 10.474 25.9893 10.36 26.1813 10.228V5.35C26.0253 5.314 25.8333 5.284 25.6053 5.26C25.3773 5.224 25.0893 5.206 24.7413 5.206C23.9493 5.206 23.3433 5.47 22.9233 5.998C22.5033 6.514 22.2933 7.198 22.2933 8.05ZM28.3593 12.046C28.3593 13.546 27.9753 14.644 27.2073 15.34C26.4513 16.036 25.2873 16.384 23.7153 16.384C23.1393 16.384 22.5753 16.336 22.0233 16.24C21.4833 16.144 20.9913 16.018 20.5473 15.862L20.9433 14.008C21.3153 14.164 21.7353 14.29 22.2033 14.386C22.6833 14.482 23.1993 14.53 23.7513 14.53C24.6273 14.53 25.2513 14.35 25.6233 13.99C25.9953 13.63 26.1813 13.096 26.1813 12.388V12.028C25.9653 12.136 25.6773 12.244 25.3173 12.352C24.9693 12.46 24.5673 12.514 24.1113 12.514C23.5113 12.514 22.9593 12.418 22.4553 12.226C21.9633 12.034 21.5373 11.752 21.1773 11.38C20.8293 11.008 20.5533 10.546 20.3493 9.994C20.1573 9.43 20.0613 8.782 20.0613 8.05C20.0613 7.366 20.1633 6.736 20.3673 6.16C20.5833 5.584 20.8893 5.092 21.2853 4.684C21.6933 4.276 22.1853 3.958 22.7613 3.73C23.3373 3.502 23.9913 3.388 24.7233 3.388C25.4313 3.388 26.1033 3.442 26.7393 3.55C27.3753 3.658 27.9153 3.772 28.3593 3.892V12.046ZM39.6441 8.284C39.6441 9.028 39.5361 9.706 39.3201 10.318C39.1041 10.93 38.7981 11.452 38.4021 11.884C38.0061 12.316 37.5261 12.652 36.9621 12.892C36.4101 13.132 35.7981 13.252 35.1261 13.252C34.4541 13.252 33.8421 13.132 33.2901 12.892C32.7381 12.652 32.2641 12.316 31.8681 11.884C31.4721 11.452 31.1601 10.93 30.9321 10.318C30.7161 9.706 30.6081 9.028 30.6081 8.284C30.6081 7.54 30.7161 6.868 30.9321 6.268C31.1601 5.656 31.4721 5.134 31.8681 4.702C32.2761 4.27 32.7561 3.94 33.3081 3.712C33.8601 3.472 34.4661 3.352 35.1261 3.352C35.7861 3.352 36.3921 3.472 36.9441 3.712C37.5081 3.94 37.9881 4.27 38.3841 4.702C38.7801 5.134 39.0861 5.656 39.3021 6.268C39.5301 6.868 39.6441 7.54 39.6441 8.284ZM37.4121 8.284C37.4121 7.348 37.2081 6.61 36.8001 6.07C36.4041 5.518 35.8461 5.242 35.1261 5.242C34.4061 5.242 33.8421 5.518 33.4341 6.07C33.0381 6.61 32.8401 7.348 32.8401 8.284C32.8401 9.232 33.0381 9.982 33.4341 10.534C33.8421 11.086 34.4061 11.362 35.1261 11.362C35.8461 11.362 36.4041 11.086 36.8001 10.534C37.2081 9.982 37.4121 9.232 37.4121 8.284ZM41.78 1.102L43.958 0.741999V3.586H47.306V5.404H43.958V9.238C43.958 9.994 44.078 10.534 44.318 10.858C44.558 11.182 44.966 11.344 45.542 11.344C45.938 11.344 46.286 11.302 46.586 11.218C46.898 11.134 47.144 11.056 47.324 10.984L47.684 12.712C47.432 12.82 47.102 12.928 46.694 13.036C46.286 13.156 45.806 13.216 45.254 13.216C44.582 13.216 44.018 13.126 43.562 12.946C43.118 12.766 42.764 12.508 42.5 12.172C42.236 11.824 42.05 11.41 41.942 10.93C41.834 10.438 41.78 9.88 41.78 9.256V1.102ZM57.0974 3.586C56.1254 7.162 54.9974 10.402 53.7134 13.306C53.4734 13.846 53.2274 14.308 52.9754 14.692C52.7234 15.076 52.4414 15.394 52.1294 15.646C51.8174 15.898 51.4694 16.078 51.0854 16.186C50.7014 16.306 50.2574 16.366 49.7534 16.366C49.4174 16.366 49.0814 16.33 48.7454 16.258C48.4214 16.186 48.1754 16.108 48.0074 16.024L48.4034 14.278C48.8354 14.446 49.2614 14.53 49.6814 14.53C50.2454 14.53 50.6834 14.392 50.9954 14.116C51.3194 13.852 51.6014 13.438 51.8414 12.874C51.1574 11.554 50.4974 10.114 49.8614 8.554C49.2374 6.994 48.6794 5.338 48.1874 3.586H50.5094C50.6294 4.09 50.7734 4.636 50.9414 5.224C51.1214 5.812 51.3134 6.412 51.5174 7.024C51.7214 7.624 51.9374 8.224 52.1654 8.824C52.3934 9.424 52.6214 9.982 52.8494 10.498C53.2334 9.43 53.5934 8.296 53.9294 7.096C54.2654 5.884 54.5714 4.714 54.8474 3.586H57.0974ZM64.9914 8.338C64.9914 7.366 64.7694 6.61 64.3254 6.07C63.8934 5.53 63.1914 5.26 62.2194 5.26C62.0154 5.26 61.7994 5.272 61.5714 5.296C61.3554 5.308 61.1394 5.344 60.9234 5.404V10.786C61.1154 10.918 61.3674 11.044 61.6794 11.164C62.0034 11.272 62.3454 11.326 62.7054 11.326C63.4974 11.326 64.0734 11.056 64.4334 10.516C64.8054 9.976 64.9914 9.25 64.9914 8.338ZM67.2234 8.302C67.2234 9.022 67.1274 9.682 66.9354 10.282C66.7554 10.882 66.4914 11.398 66.1434 11.83C65.7954 12.262 65.3574 12.598 64.8294 12.838C64.3134 13.078 63.7254 13.198 63.0654 13.198C62.6214 13.198 62.2134 13.144 61.8414 13.036C61.4694 12.928 61.1634 12.808 60.9234 12.676V16.33H58.7454V3.892C59.1894 3.772 59.7354 3.658 60.3834 3.55C61.0314 3.442 61.7154 3.388 62.4354 3.388C63.1794 3.388 63.8454 3.502 64.4334 3.73C65.0214 3.958 65.5194 4.288 65.9274 4.72C66.3474 5.14 66.6654 5.656 66.8814 6.268C67.1094 6.868 67.2234 7.546 67.2234 8.302ZM68.946 8.338C68.946 7.51 69.066 6.784 69.306 6.16C69.558 5.536 69.888 5.02 70.296 4.612C70.704 4.192 71.172 3.88 71.7 3.676C72.228 3.46 72.768 3.352 73.32 3.352C74.616 3.352 75.624 3.754 76.344 4.558C77.076 5.362 77.442 6.562 77.442 8.158C77.442 8.278 77.436 8.416 77.424 8.572C77.424 8.716 77.418 8.848 77.406 8.968H71.196C71.256 9.724 71.52 10.312 71.988 10.732C72.468 11.14 73.158 11.344 74.058 11.344C74.586 11.344 75.066 11.296 75.498 11.2C75.942 11.104 76.29 11.002 76.542 10.894L76.83 12.676C76.71 12.736 76.542 12.802 76.326 12.874C76.122 12.934 75.882 12.988 75.606 13.036C75.342 13.096 75.054 13.144 74.742 13.18C74.43 13.216 74.112 13.234 73.788 13.234C72.96 13.234 72.24 13.114 71.628 12.874C71.016 12.622 70.512 12.28 70.116 11.848C69.72 11.404 69.426 10.888 69.234 10.3C69.042 9.7 68.946 9.046 68.946 8.338ZM75.264 7.366C75.264 7.066 75.222 6.784 75.138 6.52C75.054 6.244 74.928 6.01 74.76 5.818C74.604 5.614 74.406 5.458 74.166 5.35C73.938 5.23 73.662 5.17 73.338 5.17C73.002 5.17 72.708 5.236 72.456 5.368C72.204 5.488 71.988 5.65 71.808 5.854C71.64 6.058 71.508 6.292 71.412 6.556C71.316 6.82 71.25 7.09 71.214 7.366H75.264Z" fill="#121212"/>
</svg>
