<svg width="128" height="32" viewBox="0 0 128 32" fill="none" xmlns="http://www.w3.org/2000/svg">
<g clip-path="url(#clip0_238_1989)">
<path d="M26.88 0H5.12C2.2923 0 0 2.2923 0 5.12V26.88C0 29.7077 2.2923 32 5.12 32H26.88C29.7077 32 32 29.7077 32 26.88V5.12C32 2.2923 29.7077 0 26.88 0Z" fill="#EA4C60"/>
<path d="M6.76422 14.993L13.1382 11.325L13.1462 11.32L19.7142 7.54001C19.9912 7.38001 20.0042 6.89001 19.6942 6.71201L19.4772 6.58801C19.1602 6.40801 18.7502 6.17401 18.5752 6.07201C18.4219 5.98853 18.2497 5.94579 18.0752 5.94789C17.9006 5.94999 17.7295 5.99686 17.5782 6.08401C17.4232 6.17401 7.07722 12.122 6.73122 12.319C6.52734 12.4356 6.29657 12.4969 6.06172 12.4969C5.82688 12.4969 5.5961 12.4356 5.39222 12.319L-0.0717773 9.14401V11.843L-0.0157773 11.875C1.34822 12.67 4.57622 14.55 5.36622 14.995C5.84522 15.265 6.30322 15.259 6.76422 14.993Z" fill="white"/>
<path d="M6.76422 20.385L13.1302 16.721L13.1542 16.707L19.7142 12.932C19.9912 12.772 20.0042 12.281 19.6942 12.104L19.4772 11.98C19.1612 11.8 18.7502 11.566 18.5752 11.464C18.4219 11.3805 18.2497 11.3378 18.0752 11.3399C17.9006 11.342 17.7295 11.3889 17.5782 11.476C17.4232 11.565 7.07722 17.514 6.73122 17.71C6.52734 17.8266 6.29657 17.8879 6.06172 17.8879C5.82688 17.8879 5.5961 17.8266 5.39222 17.71C5.06622 17.522 -0.0717773 14.536 -0.0717773 14.536V17.234L-0.0157773 17.267C1.34922 18.062 4.57622 19.941 5.36622 20.387C5.84522 20.657 6.30322 20.651 6.76422 20.385Z" fill="white"/>
<path d="M13.1392 22.108L6.76422 25.777C6.30322 26.043 5.84422 26.049 5.36622 25.779C4.57622 25.333 1.34922 23.454 -0.0157773 22.659L-0.0717773 22.626V19.928L5.39222 23.102C5.80522 23.341 6.31722 23.338 6.73122 23.102C7.07722 22.906 17.4232 16.957 17.5782 16.867C17.7295 16.7799 17.9006 16.733 18.0752 16.7309C18.2497 16.7288 18.4219 16.7715 18.5752 16.855C18.9475 17.0703 19.3208 17.2836 19.6952 17.495C20.0052 17.673 19.9912 18.164 19.7142 18.324L13.1392 22.108Z" fill="white"/>
<path d="M55.6502 18.73C55.6502 19.245 55.7392 19.745 55.9142 20.222C56.0902 20.703 56.3462 21.126 56.6882 21.495C57.0302 21.865 57.4392 22.159 57.9182 22.379C58.3982 22.6 58.9432 22.71 59.5502 22.71C60.1582 22.71 60.7022 22.6 61.1812 22.38C61.6432 22.1734 62.0589 21.8758 62.4033 21.5051C62.7478 21.1343 63.0141 20.6979 63.1862 20.222C63.3592 19.745 63.4462 19.245 63.4462 18.73C63.4462 18.215 63.3592 17.715 63.1862 17.236C63.015 16.7652 62.7519 16.3332 62.4122 15.965C62.0647 15.5917 61.6466 15.2909 61.1822 15.08C60.6689 14.8517 60.112 14.7381 59.5502 14.747C58.9432 14.747 58.3982 14.86 57.9192 15.08C57.4392 15.301 57.0302 15.596 56.6892 15.965C56.3484 16.3322 56.0849 16.764 55.9142 17.235C55.7392 17.715 55.6502 18.215 55.6502 18.73ZM52.3342 18.73C52.3342 17.68 52.5242 16.725 52.9012 15.868C53.2587 15.0389 53.781 14.2911 54.4362 13.67C55.0985 13.0511 55.8782 12.5713 56.7292 12.259C57.632 11.925 58.5876 11.7566 59.5502 11.762C60.5452 11.762 61.4852 11.928 62.3702 12.259C63.2211 12.5716 64.001 13.051 64.6642 13.669C65.3191 14.2909 65.8412 15.0389 66.1992 15.868C66.5772 16.725 66.7662 17.679 66.7662 18.73C66.7662 19.78 66.5762 20.735 66.1992 21.592C65.8411 22.4208 65.319 23.1685 64.6642 23.79C64.0017 24.409 63.2216 24.8885 62.3702 25.2C61.4685 25.5352 60.5132 25.7036 59.5512 25.697C58.5885 25.7036 57.6327 25.5352 56.7302 25.2C55.8789 24.8894 55.099 24.4102 54.4372 23.791C53.7819 23.1699 53.2597 22.4221 52.9022 21.593C52.5242 20.736 52.3352 19.782 52.3352 18.731L52.3342 18.73ZM71.6302 18.734C71.6302 19.249 71.7172 19.749 71.8932 20.226C72.0682 20.707 72.3242 21.13 72.6662 21.499C73.0082 21.869 73.4182 22.163 73.8972 22.383C74.3772 22.603 74.9212 22.714 75.5282 22.714C76.1362 22.714 76.6802 22.604 77.1602 22.384C77.6224 22.1777 78.0382 21.8802 78.3827 21.5094C78.7272 21.1386 78.9934 20.7021 79.1652 20.226C79.3385 19.7477 79.4265 19.2427 79.4252 18.734C79.4252 18.219 79.3382 17.719 79.1652 17.24C78.9926 16.7646 78.7262 16.3287 78.3818 15.9583C78.0373 15.5879 77.6219 15.2906 77.1602 15.084C76.6469 14.8557 76.09 14.742 75.5282 14.751C74.9212 14.751 74.3762 14.864 73.8982 15.084C73.4331 15.2946 73.0143 15.5954 72.6662 15.969C72.3252 16.338 72.0682 16.761 71.8932 17.239C71.7172 17.719 71.6302 18.219 71.6302 18.734ZM79.4822 23.378H79.4252C78.9462 24.19 78.3032 24.78 77.4912 25.148C76.6658 25.5187 75.7701 25.707 74.8652 25.7C73.8322 25.7 72.9162 25.522 72.1132 25.162C71.3317 24.8168 70.6305 24.3127 70.0542 23.682C69.474 23.0415 69.0315 22.2886 68.7542 21.47C68.4542 20.5894 68.3051 19.6643 68.3132 18.734C68.3048 17.8006 68.464 16.8732 68.7832 15.996C69.0762 15.1821 69.5214 14.4314 70.0952 13.784C70.6619 13.1553 71.3537 12.6518 72.1262 12.306C72.9202 11.946 73.7862 11.766 74.7262 11.766C75.3532 11.766 75.9062 11.831 76.3862 11.959C76.8652 12.089 77.2882 12.254 77.6562 12.459C78.2707 12.7818 78.808 13.2338 79.2312 13.784H79.3152V6.47301C79.3152 6.14201 79.5782 5.75101 80.0392 5.75101H81.9122C82.3462 5.75101 82.6342 6.11501 82.6342 6.47301V24.646C82.6342 25.108 82.2432 25.369 81.9122 25.369H80.2072C80.0162 25.3672 79.8334 25.2908 79.698 25.1561C79.5625 25.0214 79.4851 24.839 79.4822 24.648V23.378ZM88.1572 18.73C88.1572 19.245 88.2452 19.745 88.4212 20.222C88.5962 20.703 88.8532 21.126 89.1952 21.495C89.5426 21.8682 89.9607 22.1687 90.4252 22.379C90.9052 22.6 91.4492 22.71 92.0572 22.71C92.6642 22.71 93.2092 22.6 93.6882 22.38C94.1504 22.1736 94.5661 21.8761 94.9107 21.5053C95.2552 21.1346 95.5213 20.6981 95.6932 20.222C95.8662 19.745 95.9532 19.245 95.9532 18.73C95.9532 18.215 95.8662 17.715 95.6932 17.236C95.5205 16.7606 95.2541 16.3248 94.9096 15.9544C94.5652 15.5841 94.1498 15.2867 93.6882 15.08C93.1752 14.8519 92.6186 14.7383 92.0572 14.747C91.4492 14.747 90.9042 14.86 90.4252 15.08C89.9462 15.301 89.5372 15.596 89.1952 15.965C88.8532 16.334 88.5962 16.757 88.4212 17.235C88.2452 17.715 88.1572 18.215 88.1572 18.73ZM84.8412 18.73C84.8412 17.68 85.0302 16.725 85.4082 15.868C85.7654 15.039 86.2873 14.2912 86.9422 13.67C87.6045 13.0511 88.3842 12.5713 89.2352 12.259C90.1383 11.9249 91.0943 11.7565 92.0572 11.762C93.0512 11.762 93.9922 11.928 94.8762 12.259C95.7275 12.5715 96.5077 13.0509 97.1712 13.669C97.8257 14.291 98.3475 15.039 98.7052 15.868C99.0832 16.725 99.2732 17.679 99.2732 18.73C99.2732 19.78 99.0832 20.735 98.7062 21.592C98.3482 22.4208 97.826 23.1685 97.1712 23.79C96.5084 24.4087 95.7279 24.8879 94.8762 25.199C93.9741 25.5343 93.0186 25.7027 92.0562 25.696C91.0939 25.7025 90.1384 25.5341 89.2362 25.199C88.3845 24.8885 87.6043 24.4093 86.9422 23.79C86.2873 23.1688 85.7654 22.421 85.4082 21.592C85.0302 20.735 84.8412 19.781 84.8412 18.73ZM100.945 7.58801C100.945 7.05301 101.143 6.58901 101.539 6.19001C101.937 5.79501 102.439 5.59601 103.046 5.59601C103.654 5.59601 104.167 5.78601 104.581 6.16401C104.995 6.54201 105.204 7.01601 105.204 7.58801C105.21 7.85635 105.157 8.12271 105.05 8.36861C104.942 8.61451 104.782 8.83405 104.581 9.01201C104.167 9.39001 103.654 9.57901 103.046 9.57901C102.439 9.57901 101.937 9.38101 101.539 8.98301C101.143 8.58701 100.945 8.12301 100.945 7.58801ZM114.64 15.77C114.309 15.77 114.065 15.52 114.024 15.411C113.748 14.688 112.869 14.417 112.159 14.417C111.04 14.417 110.162 14.936 110.162 15.827C110.162 16.69 111.012 16.867 111.537 17.026C112.113 17.2 113.214 17.44 113.821 17.583C114.421 17.7224 115.002 17.9361 115.549 18.219C117.31 19.134 117.561 20.573 117.561 21.439C117.561 24.636 114.394 25.696 112.195 25.696C110.5 25.696 107.316 25.439 106.617 22.208C106.549 21.893 106.827 21.41 107.338 21.41H109.17C109.53 21.41 109.773 21.673 109.844 21.88C110.079 22.529 110.827 23.02 112.089 23.02C113.442 23.02 114.242 22.483 114.242 21.769C114.242 21.307 113.981 20.897 113.639 20.665C112.613 19.969 110.075 19.891 108.697 19.157C108.169 18.877 106.845 18.235 106.845 16.048C106.845 13.033 109.586 11.762 111.994 11.762C115.545 11.762 116.848 14.005 116.995 14.837C117.076 15.296 116.819 15.771 116.303 15.771L114.64 15.77ZM117.833 14.129V12.756C117.833 12.429 118.091 12.035 118.55 12.035H120.319V8.66501C120.319 8.30501 120.563 8.08501 120.748 8.00501L122.638 7.18001C123.19 6.95301 123.637 7.40801 123.637 7.84601V12.035H126.565C127.018 12.035 127.287 12.43 127.287 12.756V14.131C127.282 14.3207 127.204 14.5011 127.07 14.6354C126.936 14.7698 126.756 14.848 126.566 14.854H123.637V20.662C123.637 21.325 123.619 21.844 123.872 22.227C124.105 22.578 124.446 22.709 125.129 22.709C125.325 22.709 125.5 22.676 125.648 22.626C125.807 22.5657 125.982 22.5646 126.141 22.6228C126.301 22.681 126.434 22.7947 126.516 22.943C126.732 23.361 126.979 23.82 127.152 24.149C127.343 24.51 127.189 24.974 126.841 25.142C126.28 25.415 125.502 25.636 124.435 25.636C123.551 25.636 123.05 25.54 122.49 25.346C121.938 25.143 121.449 24.7981 121.073 24.346C120.749 23.95 120.589 23.42 120.469 22.83C120.347 22.24 120.319 21.526 120.319 20.75V14.854H118.554C118.091 14.854 117.833 14.454 117.833 14.129ZM41.9282 14.129V12.756C41.9282 12.429 42.1872 12.035 42.6452 12.035H44.6662V8.66501C44.6662 8.30501 44.9112 8.08501 45.0962 8.00501L46.9862 7.18001C47.5382 6.95301 47.9852 7.40801 47.9852 7.84601V12.035H50.9132C51.3652 12.035 51.6352 12.43 51.6352 12.756V14.131C51.6297 14.3208 51.5519 14.5014 51.4177 14.6358C51.2835 14.7702 51.103 14.8482 50.9132 14.854H47.9852V20.662C47.9852 21.325 47.9672 21.844 48.2202 22.227C48.4522 22.578 48.7932 22.709 49.4772 22.709C49.6732 22.709 49.8472 22.676 49.9962 22.626C50.1547 22.566 50.3295 22.565 50.4887 22.6232C50.6479 22.6814 50.7808 22.7949 50.8632 22.943C51.0802 23.361 51.3272 23.82 51.5002 24.149C51.6902 24.51 51.5372 24.974 51.1892 25.142C50.6272 25.415 49.8492 25.636 48.7832 25.636C47.8992 25.636 47.3982 25.54 46.8382 25.346C46.286 25.143 45.7969 24.7981 45.4202 24.346C45.0962 23.95 44.9362 23.42 44.8172 22.83C44.6952 22.24 44.6672 21.526 44.6672 20.75V14.854H42.6502C42.1872 14.854 41.9282 14.454 41.9282 14.129ZM102.115 25.37H103.991C104.183 25.3695 104.366 25.2931 104.501 25.1575C104.636 25.022 104.712 24.8384 104.712 24.647V12.757C104.712 12.5658 104.636 12.3824 104.501 12.2471C104.366 12.1118 104.182 12.0355 103.991 12.035H102.115C101.924 12.0358 101.741 12.1122 101.606 12.2474C101.471 12.3827 101.395 12.5659 101.394 12.757V24.647C101.394 25.045 101.719 25.369 102.115 25.369V25.37Z" fill="#EA4C60"/>
</g>
<defs>
<clipPath id="clip0_238_1989">
<rect width="128" height="32" fill="white"/>
</clipPath>
</defs>
</svg>
